<mxfile host="app.diagrams.net" modified="2023-02-17T17:07:52.082Z" agent="5.0 (Windows NT 10.0; Win64; x64) AppleWebKit/537.36 (KHTML, like Gecko) Chrome/108.0.0.0 Safari/537.36" etag="xkL7EJKN-l4YKPOMEBoR" version="20.8.20" type="github" pages="3">
  <diagram name="Vactioneer-App" id="FDhQeMk710CAqj9fX2Rh">
    <mxGraphModel dx="2100" dy="2198" grid="1" gridSize="10" guides="1" tooltips="1" connect="1" arrows="1" fold="1" page="1" pageScale="1" pageWidth="850" pageHeight="1100" math="0" shadow="0">
      <root>
        <mxCell id="0" />
        <mxCell id="1" parent="0" />
        <mxCell id="teAjHod64rHnA1iqMC-f-1" value="" style="verticalLabelPosition=bottom;verticalAlign=top;html=1;shadow=0;dashed=0;strokeWidth=1;shape=mxgraph.android.phone2;strokeColor=#c0c0c0;" parent="1" vertex="1">
          <mxGeometry x="240" y="50" width="240" height="480" as="geometry" />
        </mxCell>
        <mxCell id="teAjHod64rHnA1iqMC-f-3" value="Reservation ID" style="strokeWidth=1;shadow=0;dashed=0;align=center;html=1;shape=mxgraph.mockup.text.textBox;fontColor=#666666;align=left;fontSize=17;spacingLeft=4;spacingTop=-3;strokeColor=#666666;mainText=" parent="1" vertex="1">
          <mxGeometry x="285" y="240" width="150" height="30" as="geometry" />
        </mxCell>
        <mxCell id="teAjHod64rHnA1iqMC-f-4" value="Begin Adventure" style="strokeWidth=1;shadow=0;dashed=0;align=center;html=1;shape=mxgraph.mockup.buttons.button;strokeColor=#666666;fontColor=#ffffff;mainText=;buttonStyle=round;fontSize=17;fontStyle=1;fillColor=#008cff;whiteSpace=wrap;" parent="1" vertex="1">
          <mxGeometry x="285" y="300" width="150" height="50" as="geometry" />
        </mxCell>
        <mxCell id="n9SlVf21vKVyrn2xLtgB-1" value="" style="verticalLabelPosition=bottom;verticalAlign=top;html=1;shadow=0;dashed=0;strokeWidth=1;shape=mxgraph.android.phone2;strokeColor=#c0c0c0;" vertex="1" parent="1">
          <mxGeometry x="640" y="55" width="240" height="470" as="geometry" />
        </mxCell>
        <mxCell id="n9SlVf21vKVyrn2xLtgB-2" value="- Check-in: 2/19 1:00 PM EST&lt;br&gt;- Check-out 2/24/ 10:00 AM EST&lt;br&gt;- Room Number: 241&lt;br&gt;" style="strokeWidth=1;shadow=0;dashed=0;align=center;html=1;shape=mxgraph.mockup.text.bulletedList;textColor=#666666;mainText=,,,,;textSize=17;bulletStyle=none;strokeColor=none;fillColor=none;align=left;verticalAlign=top;fontSize=17;fontColor=#666666;" vertex="1" parent="1">
          <mxGeometry x="650" y="145" width="260" height="130" as="geometry" />
        </mxCell>
        <mxCell id="n9SlVf21vKVyrn2xLtgB-3" value="" style="html=1;verticalLabelPosition=bottom;align=center;labelBackgroundColor=#ffffff;verticalAlign=top;strokeWidth=2;strokeColor=#0080F0;shadow=0;dashed=0;shape=mxgraph.ios7.icons.looking_glass;" vertex="1" parent="1">
          <mxGeometry x="670" y="225" width="60" height="60" as="geometry" />
        </mxCell>
        <mxCell id="n9SlVf21vKVyrn2xLtgB-4" value="" style="html=1;verticalLabelPosition=bottom;align=center;labelBackgroundColor=#ffffff;verticalAlign=top;strokeWidth=2;strokeColor=#0080F0;shadow=0;dashed=0;shape=mxgraph.ios7.icons.cup;" vertex="1" parent="1">
          <mxGeometry x="670" y="305" width="50" height="60" as="geometry" />
        </mxCell>
        <mxCell id="n9SlVf21vKVyrn2xLtgB-5" value="" style="html=1;verticalLabelPosition=bottom;align=center;labelBackgroundColor=#ffffff;verticalAlign=top;strokeWidth=2;strokeColor=#0080F0;shadow=0;dashed=0;shape=mxgraph.ios7.icons.help;" vertex="1" parent="1">
          <mxGeometry x="670" y="385" width="40" height="40" as="geometry" />
        </mxCell>
        <mxCell id="n9SlVf21vKVyrn2xLtgB-6" value="Find Activities" style="text;html=1;strokeColor=none;fillColor=none;align=center;verticalAlign=middle;whiteSpace=wrap;rounded=0;" vertex="1" parent="1">
          <mxGeometry x="755" y="240" width="85" height="30" as="geometry" />
        </mxCell>
        <mxCell id="n9SlVf21vKVyrn2xLtgB-7" value="Order Room Service" style="text;html=1;strokeColor=none;fillColor=none;align=center;verticalAlign=middle;whiteSpace=wrap;rounded=0;" vertex="1" parent="1">
          <mxGeometry x="767.5" y="325" width="72.5" height="30" as="geometry" />
        </mxCell>
        <mxCell id="n9SlVf21vKVyrn2xLtgB-8" value="Report a problem" style="text;html=1;strokeColor=none;fillColor=none;align=center;verticalAlign=middle;whiteSpace=wrap;rounded=0;" vertex="1" parent="1">
          <mxGeometry x="767.5" y="390" width="60" height="30" as="geometry" />
        </mxCell>
        <mxCell id="n9SlVf21vKVyrn2xLtgB-9" value="" style="shape=flexArrow;endArrow=classic;html=1;rounded=0;fontSize=12;" edge="1" parent="1">
          <mxGeometry width="50" height="50" relative="1" as="geometry">
            <mxPoint x="500" y="275" as="sourcePoint" />
            <mxPoint x="620" y="275" as="targetPoint" />
            <Array as="points">
              <mxPoint x="540" y="275" />
            </Array>
          </mxGeometry>
        </mxCell>
        <mxCell id="YJ-As4NNI8a3f9Uz0JPf-1" value="Sign in" style="text;html=1;strokeColor=none;fillColor=none;align=center;verticalAlign=middle;whiteSpace=wrap;rounded=0;fontSize=12;" vertex="1" parent="1">
          <mxGeometry x="520" y="225" width="60" height="30" as="geometry" />
        </mxCell>
        <mxCell id="RvVv2pYl-NkrrwJWxTdR-2" value="" style="endArrow=classic;html=1;rounded=0;fontSize=12;" edge="1" parent="1">
          <mxGeometry width="50" height="50" relative="1" as="geometry">
            <mxPoint x="870" y="250" as="sourcePoint" />
            <mxPoint x="1110" y="180" as="targetPoint" />
          </mxGeometry>
        </mxCell>
        <mxCell id="RvVv2pYl-NkrrwJWxTdR-4" value="" style="endArrow=classic;html=1;rounded=0;fontSize=12;" edge="1" parent="1">
          <mxGeometry width="50" height="50" relative="1" as="geometry">
            <mxPoint x="860" y="415" as="sourcePoint" />
            <mxPoint x="1020" y="660" as="targetPoint" />
          </mxGeometry>
        </mxCell>
        <mxCell id="WXtgjqqj_Y-xRtoctrlh-1" value="" style="verticalLabelPosition=bottom;verticalAlign=top;html=1;shadow=0;dashed=0;strokeWidth=1;shape=mxgraph.android.phone2;strokeColor=#c0c0c0;" vertex="1" parent="1">
          <mxGeometry x="910" y="670" width="260" height="520" as="geometry" />
        </mxCell>
        <mxCell id="WXtgjqqj_Y-xRtoctrlh-2" value="Describe your problem" style="strokeWidth=1;shadow=0;dashed=0;align=center;html=1;shape=mxgraph.mockup.text.textBox;fontColor=#666666;align=left;fontSize=17;spacingLeft=4;spacingTop=-3;strokeColor=#666666;mainText=" vertex="1" parent="1">
          <mxGeometry x="930" y="840" width="225" height="90" as="geometry" />
        </mxCell>
        <mxCell id="WXtgjqqj_Y-xRtoctrlh-3" value="Send" style="strokeWidth=1;shadow=0;dashed=0;align=center;html=1;shape=mxgraph.mockup.buttons.button;strokeColor=#666666;fontColor=#ffffff;mainText=;buttonStyle=round;fontSize=17;fontStyle=1;fillColor=#008cff;whiteSpace=wrap;" vertex="1" parent="1">
          <mxGeometry x="965" y="1060" width="150" height="50" as="geometry" />
        </mxCell>
        <mxCell id="WXtgjqqj_Y-xRtoctrlh-4" value="" style="html=1;verticalLabelPosition=bottom;align=center;labelBackgroundColor=#ffffff;verticalAlign=top;strokeWidth=2;strokeColor=#0080F0;shadow=0;dashed=0;shape=mxgraph.ios7.icons.camera;" vertex="1" parent="1">
          <mxGeometry x="930" y="950" width="30" height="17.4" as="geometry" />
        </mxCell>
        <mxCell id="WXtgjqqj_Y-xRtoctrlh-5" value="" style="shape=image;html=1;verticalAlign=top;verticalLabelPosition=bottom;labelBackgroundColor=#ffffff;imageAspect=0;aspect=fixed;image=https://cdn2.iconfinder.com/data/icons/essential-web-4/50/clip-fasten-file-attach-join-128.png" vertex="1" parent="1">
          <mxGeometry x="970" y="933.7" width="36.3" height="36.3" as="geometry" />
        </mxCell>
        <mxCell id="aImbk3tFK7KO2zgAEonw-1" value="" style="verticalLabelPosition=bottom;verticalAlign=top;html=1;shadow=0;dashed=0;strokeWidth=1;shape=mxgraph.android.phone2;strokeColor=#c0c0c0;" vertex="1" parent="1">
          <mxGeometry x="1115" y="-320" width="275" height="510" as="geometry" />
        </mxCell>
        <mxCell id="aImbk3tFK7KO2zgAEonw-2" value="" style="shape=image;html=1;verticalAlign=top;verticalLabelPosition=bottom;labelBackgroundColor=#ffffff;imageAspect=0;aspect=fixed;image=https://cdn4.iconfinder.com/data/icons/ionicons/512/icon-image-128.png" vertex="1" parent="1">
          <mxGeometry x="1135" y="-220" width="128" height="128" as="geometry" />
        </mxCell>
        <mxCell id="aImbk3tFK7KO2zgAEonw-3" value="&lt;h1&gt;Brunch Bonanza&lt;/h1&gt;&lt;p&gt;Awesome Brunch&lt;/p&gt;" style="text;html=1;strokeColor=none;fillColor=none;spacing=5;spacingTop=-20;whiteSpace=wrap;overflow=hidden;rounded=0;" vertex="1" parent="1">
          <mxGeometry x="1265" y="-212" width="190" height="120" as="geometry" />
        </mxCell>
        <mxCell id="aImbk3tFK7KO2zgAEonw-4" value="11:20 AM" style="text;html=1;strokeColor=none;fillColor=none;align=center;verticalAlign=middle;whiteSpace=wrap;rounded=0;fontSize=12;" vertex="1" parent="1">
          <mxGeometry x="1145" y="-242" width="60" height="30" as="geometry" />
        </mxCell>
        <mxCell id="aImbk3tFK7KO2zgAEonw-5" value="" style="shape=image;html=1;verticalAlign=top;verticalLabelPosition=bottom;labelBackgroundColor=#ffffff;imageAspect=0;aspect=fixed;image=https://cdn4.iconfinder.com/data/icons/ionicons/512/icon-image-128.png" vertex="1" parent="1">
          <mxGeometry x="2010" y="-248" width="128" height="128" as="geometry" />
        </mxCell>
        <mxCell id="aImbk3tFK7KO2zgAEonw-6" value="&lt;h1&gt;Mariachi&lt;br&gt;Band&lt;/h1&gt;&lt;p&gt;A mariachi band will&amp;nbsp;&lt;br&gt;be playing&lt;/p&gt;" style="text;html=1;strokeColor=none;fillColor=none;spacing=5;spacingTop=-20;whiteSpace=wrap;overflow=hidden;rounded=0;" vertex="1" parent="1">
          <mxGeometry x="2140" y="-240" width="190" height="120" as="geometry" />
        </mxCell>
        <mxCell id="aImbk3tFK7KO2zgAEonw-7" value="3:45" style="text;html=1;strokeColor=none;fillColor=none;align=center;verticalAlign=middle;whiteSpace=wrap;rounded=0;fontSize=12;" vertex="1" parent="1">
          <mxGeometry x="2020" y="-270" width="60" height="30" as="geometry" />
        </mxCell>
        <mxCell id="aImbk3tFK7KO2zgAEonw-8" value="Main Hall" style="text;html=1;strokeColor=none;fillColor=none;align=center;verticalAlign=middle;whiteSpace=wrap;rounded=0;fontSize=12;" vertex="1" parent="1">
          <mxGeometry x="1320" y="-242" width="60" height="30" as="geometry" />
        </mxCell>
        <mxCell id="aImbk3tFK7KO2zgAEonw-9" value="Pavallion" style="text;html=1;strokeColor=none;fillColor=none;align=center;verticalAlign=middle;whiteSpace=wrap;rounded=0;fontSize=12;" vertex="1" parent="1">
          <mxGeometry x="2205" y="-263" width="60" height="30" as="geometry" />
        </mxCell>
        <mxCell id="aImbk3tFK7KO2zgAEonw-10" value="age 0-6" style="strokeWidth=1;shadow=0;dashed=0;align=center;html=1;shape=mxgraph.mockup.forms.comboBox;strokeColor=#999999;fillColor=#ddeeff;align=left;fillColor2=#aaddff;mainText=;fontColor=#666666;fontSize=17;spacingLeft=3;" vertex="1" parent="1">
          <mxGeometry x="1155" y="90" width="150" height="30" as="geometry" />
        </mxCell>
        <mxCell id="aImbk3tFK7KO2zgAEonw-11" value="" style="endArrow=classic;html=1;rounded=0;fontSize=12;exitX=1;exitY=0.5;exitDx=0;exitDy=0;" edge="1" parent="1" source="n9SlVf21vKVyrn2xLtgB-7">
          <mxGeometry width="50" height="50" relative="1" as="geometry">
            <mxPoint x="1210" y="480" as="sourcePoint" />
            <mxPoint x="1260" y="430" as="targetPoint" />
          </mxGeometry>
        </mxCell>
        <mxCell id="fKiAM4aop_LA7lPVJxW6-1" value="" style="verticalLabelPosition=bottom;verticalAlign=top;html=1;shadow=0;dashed=0;strokeWidth=1;shape=mxgraph.android.phone2;strokeColor=#c0c0c0;" vertex="1" parent="1">
          <mxGeometry x="1265" y="225" width="300" height="580" as="geometry" />
        </mxCell>
        <mxCell id="fKiAM4aop_LA7lPVJxW6-2" value="&lt;table border=&quot;0&quot; cellpadding=&quot;0&quot; cellspacing=&quot;0&quot; width=&quot;100%&quot; height=&quot;100%&quot; style=&quot;font-size:1em;&quot;&gt;&lt;tbody&gt;&lt;tr height=&quot;0%&quot;&gt;&lt;td width=&quot;25%&quot;&gt;Ordered&lt;/td&gt;&lt;td width=&quot;25%&quot;&gt;Cooking&lt;/td&gt;&lt;td width=&quot;25%&quot; style=&quot;color:#008cff;&quot;&gt;Transit&lt;/td&gt;&lt;td width=&quot;25%&quot;&gt;Delivered&lt;/td&gt;&lt;/tr&gt;&lt;tr height=&quot;100%&quot;&gt;&lt;td&gt;&lt;/td&gt;&lt;/tr&gt;&lt;/tbody&gt;&lt;/table&gt;" style="strokeWidth=1;shadow=0;dashed=0;align=center;html=1;shape=mxgraph.mockup.navigation.stepBar;strokeColor=#c4c4c4;textColor=#666666;textColor2=#008cff;mainText=,,+,;textSize=17;fillColor=#666666;overflow=fill;fontSize=17;fontColor=#666666;" vertex="1" parent="1">
          <mxGeometry x="1285" y="525" width="270" height="40" as="geometry" />
        </mxCell>
        <mxCell id="fKiAM4aop_LA7lPVJxW6-3" value="- Order number: 2212&lt;br&gt;- Lobster Thermidor&lt;br&gt;- Steak Tar tar" style="strokeWidth=1;shadow=0;dashed=0;align=center;html=1;shape=mxgraph.mockup.text.bulletedList;textColor=#666666;mainText=,,,,;textSize=17;bulletStyle=none;strokeColor=none;fillColor=none;align=left;verticalAlign=top;fontSize=17;fontColor=#666666;" vertex="1" parent="1">
          <mxGeometry x="1305" y="575" width="180" height="135" as="geometry" />
        </mxCell>
        <mxCell id="fKiAM4aop_LA7lPVJxW6-4" value="New Order" style="strokeWidth=1;shadow=0;dashed=0;align=center;html=1;shape=mxgraph.mockup.buttons.button;strokeColor=#666666;fontColor=#ffffff;mainText=;buttonStyle=round;fontSize=17;fontStyle=1;fillColor=#008cff;whiteSpace=wrap;" vertex="1" parent="1">
          <mxGeometry x="1340" y="685" width="150" height="50" as="geometry" />
        </mxCell>
        <mxCell id="8YHsUQJ8EVHz81HyFgtc-1" value="" style="verticalLabelPosition=bottom;verticalAlign=top;html=1;shadow=0;dashed=0;strokeWidth=1;shape=mxgraph.android.phone2;strokeColor=#c0c0c0;" vertex="1" parent="1">
          <mxGeometry x="1840" y="240" width="300" height="580" as="geometry" />
        </mxCell>
        <mxCell id="8YHsUQJ8EVHz81HyFgtc-2" value="Menu" style="whiteSpace=wrap;html=1;shadow=0;dashed=0;fontSize=10;align=left;fillColor=#33b5e5;strokeColor=#33B5E5;fontColor=#4D4D4D;" vertex="1" parent="1">
          <mxGeometry x="1850" y="350" width="280" height="16.88" as="geometry" />
        </mxCell>
        <mxCell id="8YHsUQJ8EVHz81HyFgtc-3" value="" style="shape=mxgraph.signs.food.fast_food;html=1;pointerEvents=1;fillColor=#000000;strokeColor=none;verticalLabelPosition=bottom;verticalAlign=top;align=center;" vertex="1" parent="1">
          <mxGeometry x="1860" y="380" width="60" height="60" as="geometry" />
        </mxCell>
        <mxCell id="8YHsUQJ8EVHz81HyFgtc-4" value="" style="shape=mxgraph.signs.food.cans_and_bottles;html=1;pointerEvents=1;fillColor=#000000;strokeColor=none;verticalLabelPosition=bottom;verticalAlign=top;align=center;" vertex="1" parent="1">
          <mxGeometry x="1865" y="510" width="50" height="70" as="geometry" />
        </mxCell>
        <mxCell id="8YHsUQJ8EVHz81HyFgtc-5" value="" style="shape=mxgraph.signs.food.coffee;html=1;pointerEvents=1;fillColor=#000000;strokeColor=none;verticalLabelPosition=bottom;verticalAlign=top;align=center;" vertex="1" parent="1">
          <mxGeometry x="1860" y="450" width="60" height="50" as="geometry" />
        </mxCell>
        <mxCell id="8YHsUQJ8EVHz81HyFgtc-6" value="Hamburger" style="text;html=1;strokeColor=none;fillColor=none;align=center;verticalAlign=middle;whiteSpace=wrap;rounded=0;" vertex="1" parent="1">
          <mxGeometry x="1940" y="395" width="60" height="30" as="geometry" />
        </mxCell>
        <mxCell id="8YHsUQJ8EVHz81HyFgtc-7" value="Coffee" style="text;html=1;strokeColor=none;fillColor=none;align=center;verticalAlign=middle;whiteSpace=wrap;rounded=0;" vertex="1" parent="1">
          <mxGeometry x="1940" y="450" width="60" height="30" as="geometry" />
        </mxCell>
        <mxCell id="8YHsUQJ8EVHz81HyFgtc-8" value="Soda" style="text;html=1;strokeColor=none;fillColor=none;align=center;verticalAlign=middle;whiteSpace=wrap;rounded=0;" vertex="1" parent="1">
          <mxGeometry x="1940" y="540" width="60" height="30" as="geometry" />
        </mxCell>
        <mxCell id="8YHsUQJ8EVHz81HyFgtc-9" value="" style="rounded=0;whiteSpace=wrap;html=1;" vertex="1" parent="1">
          <mxGeometry x="2180" y="360" width="170" height="160" as="geometry" />
        </mxCell>
        <mxCell id="8YHsUQJ8EVHz81HyFgtc-10" value="" style="strokeWidth=1;shadow=0;dashed=0;align=center;html=1;shape=mxgraph.mockup.forms.rrect;rSize=0;strokeColor=#999999;fillColor=#ffffff;recursiveResize=0;" vertex="1" parent="1">
          <mxGeometry x="2180" y="366.88" width="150" height="120" as="geometry" />
        </mxCell>
        <mxCell id="8YHsUQJ8EVHz81HyFgtc-11" value="Rare" style="strokeWidth=1;shadow=0;dashed=0;align=center;html=1;shape=mxgraph.mockup.forms.rrect;rSize=0;fillColor=#eeeeee;strokeColor=#999999;gradientColor=#cccccc;align=left;spacingLeft=4;fontSize=17;fontColor=#666666;labelPosition=right;" vertex="1" parent="8YHsUQJ8EVHz81HyFgtc-10">
          <mxGeometry x="8" y="7.5" width="15" height="15" as="geometry" />
        </mxCell>
        <mxCell id="8YHsUQJ8EVHz81HyFgtc-12" value="Medium" style="strokeWidth=1;shadow=0;dashed=0;align=center;html=1;shape=mxgraph.mockup.forms.rrect;rSize=0;fillColor=#eeeeee;strokeColor=#999999;gradientColor=#cccccc;align=left;spacingLeft=4;fontSize=17;fontColor=#666666;labelPosition=right;" vertex="1" parent="8YHsUQJ8EVHz81HyFgtc-10">
          <mxGeometry x="8" y="37.5" width="15" height="15" as="geometry" />
        </mxCell>
        <mxCell id="8YHsUQJ8EVHz81HyFgtc-13" value="Medium Well" style="strokeWidth=1;shadow=0;dashed=0;align=center;html=1;shape=mxgraph.mockup.forms.checkbox;rSize=0;resizable=0;fillColor=#aaaaaa;strokeColor=#444444;gradientColor=#666666;align=left;spacingLeft=4;fontSize=17;fontColor=#008cff;labelPosition=right;" vertex="1" parent="8YHsUQJ8EVHz81HyFgtc-10">
          <mxGeometry x="8" y="67.5" width="15" height="15" as="geometry" />
        </mxCell>
        <mxCell id="8YHsUQJ8EVHz81HyFgtc-14" value="Well Done" style="strokeWidth=1;shadow=0;dashed=0;align=center;html=1;shape=mxgraph.mockup.forms.rrect;rSize=0;fillColor=#eeeeee;strokeColor=#999999;gradientColor=#cccccc;align=left;spacingLeft=4;fontSize=17;fontColor=#666666;labelPosition=right;" vertex="1" parent="8YHsUQJ8EVHz81HyFgtc-10">
          <mxGeometry x="8" y="97.5" width="15" height="15" as="geometry" />
        </mxCell>
        <mxCell id="8YHsUQJ8EVHz81HyFgtc-15" value="Quantity" style="strokeWidth=1;shadow=0;dashed=0;align=center;html=1;shape=mxgraph.mockup.forms.comboBox;strokeColor=#999999;fillColor=#ddeeff;align=left;fillColor2=#aaddff;mainText=;fontColor=#666666;fontSize=17;spacingLeft=3;" vertex="1" parent="1">
          <mxGeometry x="2180" y="486.88" width="150" height="30" as="geometry" />
        </mxCell>
        <mxCell id="8YHsUQJ8EVHz81HyFgtc-16" value="" style="shape=table;html=1;whiteSpace=wrap;startSize=0;container=1;collapsible=0;childLayout=tableLayout;strokeWidth=2;" vertex="1" parent="1">
          <mxGeometry x="1900" y="600" width="180" height="80" as="geometry" />
        </mxCell>
        <mxCell id="8YHsUQJ8EVHz81HyFgtc-17" value="" style="shape=tableRow;horizontal=0;startSize=0;swimlaneHead=0;swimlaneBody=0;top=0;left=0;bottom=0;right=0;collapsible=0;dropTarget=0;fillColor=none;points=[[0,0.5],[1,0.5]];portConstraint=eastwest;" vertex="1" parent="8YHsUQJ8EVHz81HyFgtc-16">
          <mxGeometry width="180" height="27" as="geometry" />
        </mxCell>
        <mxCell id="8YHsUQJ8EVHz81HyFgtc-18" value="Item" style="shape=partialRectangle;html=1;whiteSpace=wrap;connectable=0;fillColor=none;top=0;left=0;bottom=0;right=0;overflow=hidden;fontStyle=1" vertex="1" parent="8YHsUQJ8EVHz81HyFgtc-17">
          <mxGeometry width="90" height="27" as="geometry">
            <mxRectangle width="90" height="27" as="alternateBounds" />
          </mxGeometry>
        </mxCell>
        <mxCell id="8YHsUQJ8EVHz81HyFgtc-19" value="Quantity" style="shape=partialRectangle;html=1;whiteSpace=wrap;connectable=0;fillColor=none;top=0;left=0;bottom=0;right=0;overflow=hidden;fontStyle=1" vertex="1" parent="8YHsUQJ8EVHz81HyFgtc-17">
          <mxGeometry x="90" width="90" height="27" as="geometry">
            <mxRectangle width="90" height="27" as="alternateBounds" />
          </mxGeometry>
        </mxCell>
        <mxCell id="8YHsUQJ8EVHz81HyFgtc-20" value="" style="shape=tableRow;horizontal=0;startSize=0;swimlaneHead=0;swimlaneBody=0;top=0;left=0;bottom=0;right=0;collapsible=0;dropTarget=0;fillColor=none;points=[[0,0.5],[1,0.5]];portConstraint=eastwest;" vertex="1" parent="8YHsUQJ8EVHz81HyFgtc-16">
          <mxGeometry y="27" width="180" height="26" as="geometry" />
        </mxCell>
        <mxCell id="8YHsUQJ8EVHz81HyFgtc-21" value="Hamburger" style="shape=partialRectangle;html=1;whiteSpace=wrap;connectable=0;fillColor=none;top=0;left=0;bottom=0;right=0;overflow=hidden;" vertex="1" parent="8YHsUQJ8EVHz81HyFgtc-20">
          <mxGeometry width="90" height="26" as="geometry">
            <mxRectangle width="90" height="26" as="alternateBounds" />
          </mxGeometry>
        </mxCell>
        <mxCell id="8YHsUQJ8EVHz81HyFgtc-22" value="3" style="shape=partialRectangle;html=1;whiteSpace=wrap;connectable=0;fillColor=none;top=0;left=0;bottom=0;right=0;overflow=hidden;" vertex="1" parent="8YHsUQJ8EVHz81HyFgtc-20">
          <mxGeometry x="90" width="90" height="26" as="geometry">
            <mxRectangle width="90" height="26" as="alternateBounds" />
          </mxGeometry>
        </mxCell>
        <mxCell id="8YHsUQJ8EVHz81HyFgtc-23" value="" style="shape=tableRow;horizontal=0;startSize=0;swimlaneHead=0;swimlaneBody=0;top=0;left=0;bottom=0;right=0;collapsible=0;dropTarget=0;fillColor=none;points=[[0,0.5],[1,0.5]];portConstraint=eastwest;" vertex="1" parent="8YHsUQJ8EVHz81HyFgtc-16">
          <mxGeometry y="53" width="180" height="27" as="geometry" />
        </mxCell>
        <mxCell id="8YHsUQJ8EVHz81HyFgtc-24" value="Coffee" style="shape=partialRectangle;html=1;whiteSpace=wrap;connectable=0;fillColor=none;top=0;left=0;bottom=0;right=0;overflow=hidden;" vertex="1" parent="8YHsUQJ8EVHz81HyFgtc-23">
          <mxGeometry width="90" height="27" as="geometry">
            <mxRectangle width="90" height="27" as="alternateBounds" />
          </mxGeometry>
        </mxCell>
        <mxCell id="8YHsUQJ8EVHz81HyFgtc-25" value="1" style="shape=partialRectangle;html=1;whiteSpace=wrap;connectable=0;fillColor=none;top=0;left=0;bottom=0;right=0;overflow=hidden;" vertex="1" parent="8YHsUQJ8EVHz81HyFgtc-23">
          <mxGeometry x="90" width="90" height="27" as="geometry">
            <mxRectangle width="90" height="27" as="alternateBounds" />
          </mxGeometry>
        </mxCell>
        <mxCell id="8YHsUQJ8EVHz81HyFgtc-26" value="Order" style="strokeWidth=1;shadow=0;dashed=0;align=center;html=1;shape=mxgraph.mockup.buttons.button;strokeColor=#666666;fontColor=#ffffff;mainText=;buttonStyle=round;fontSize=17;fontStyle=1;fillColor=#008cff;whiteSpace=wrap;" vertex="1" parent="1">
          <mxGeometry x="1915" y="690" width="150" height="50" as="geometry" />
        </mxCell>
        <mxCell id="8YHsUQJ8EVHz81HyFgtc-27" value="" style="endArrow=classic;html=1;rounded=0;fontSize=12;" edge="1" parent="1" source="fKiAM4aop_LA7lPVJxW6-4">
          <mxGeometry width="50" height="50" relative="1" as="geometry">
            <mxPoint x="1380" y="460" as="sourcePoint" />
            <mxPoint x="1820" y="650" as="targetPoint" />
            <Array as="points">
              <mxPoint x="1700" y="670" />
            </Array>
          </mxGeometry>
        </mxCell>
        <mxCell id="8YHsUQJ8EVHz81HyFgtc-28" value="" style="verticalLabelPosition=bottom;verticalAlign=top;html=1;shadow=0;dashed=0;strokeWidth=1;shape=mxgraph.android.phone2;strokeColor=#c0c0c0;direction=south;fontSize=12;" vertex="1" parent="1">
          <mxGeometry x="1620" y="-300" width="730" height="290" as="geometry" />
        </mxCell>
        <mxCell id="8YHsUQJ8EVHz81HyFgtc-30" value="" style="shape=image;html=1;verticalAlign=top;verticalLabelPosition=bottom;labelBackgroundColor=#ffffff;imageAspect=0;aspect=fixed;image=https://cdn4.iconfinder.com/data/icons/ionicons/512/icon-image-128.png" vertex="1" parent="1">
          <mxGeometry x="1720" y="-238" width="128" height="128" as="geometry" />
        </mxCell>
        <mxCell id="8YHsUQJ8EVHz81HyFgtc-31" value="&lt;h1&gt;Brunch Bonanza&lt;/h1&gt;&lt;p&gt;Awesome Brunch&lt;/p&gt;" style="text;html=1;strokeColor=none;fillColor=none;spacing=5;spacingTop=-20;whiteSpace=wrap;overflow=hidden;rounded=0;" vertex="1" parent="1">
          <mxGeometry x="1850" y="-230" width="190" height="120" as="geometry" />
        </mxCell>
        <mxCell id="8YHsUQJ8EVHz81HyFgtc-32" value="11:20 AM" style="text;html=1;strokeColor=none;fillColor=none;align=center;verticalAlign=middle;whiteSpace=wrap;rounded=0;fontSize=12;" vertex="1" parent="1">
          <mxGeometry x="1730" y="-260" width="60" height="30" as="geometry" />
        </mxCell>
        <mxCell id="8YHsUQJ8EVHz81HyFgtc-33" value="Main Hall" style="text;html=1;strokeColor=none;fillColor=none;align=center;verticalAlign=middle;whiteSpace=wrap;rounded=0;fontSize=12;" vertex="1" parent="1">
          <mxGeometry x="1905" y="-260" width="60" height="30" as="geometry" />
        </mxCell>
        <mxCell id="8YHsUQJ8EVHz81HyFgtc-35" value="" style="shape=image;html=1;verticalAlign=top;verticalLabelPosition=bottom;labelBackgroundColor=#ffffff;imageAspect=0;aspect=fixed;image=https://cdn4.iconfinder.com/data/icons/ionicons/512/icon-image-128.png" vertex="1" parent="1">
          <mxGeometry x="1130" y="-70" width="128" height="128" as="geometry" />
        </mxCell>
        <mxCell id="8YHsUQJ8EVHz81HyFgtc-36" value="&lt;h1&gt;Mariachi&lt;br&gt;Band&lt;/h1&gt;&lt;p&gt;A mariachi band will&amp;nbsp;&lt;br&gt;be playing&lt;/p&gt;" style="text;html=1;strokeColor=none;fillColor=none;spacing=5;spacingTop=-20;whiteSpace=wrap;overflow=hidden;rounded=0;" vertex="1" parent="1">
          <mxGeometry x="1260" y="-62" width="190" height="120" as="geometry" />
        </mxCell>
        <mxCell id="8YHsUQJ8EVHz81HyFgtc-37" value="3:45" style="text;html=1;strokeColor=none;fillColor=none;align=center;verticalAlign=middle;whiteSpace=wrap;rounded=0;fontSize=12;" vertex="1" parent="1">
          <mxGeometry x="1140" y="-92" width="60" height="30" as="geometry" />
        </mxCell>
        <mxCell id="8YHsUQJ8EVHz81HyFgtc-38" value="Pavallion" style="text;html=1;strokeColor=none;fillColor=none;align=center;verticalAlign=middle;whiteSpace=wrap;rounded=0;fontSize=12;" vertex="1" parent="1">
          <mxGeometry x="1325" y="-85" width="60" height="30" as="geometry" />
        </mxCell>
        <mxCell id="8YHsUQJ8EVHz81HyFgtc-39" value="age 0-6" style="strokeWidth=1;shadow=0;dashed=0;align=center;html=1;shape=mxgraph.mockup.forms.comboBox;strokeColor=#999999;fillColor=#ddeeff;align=left;fillColor2=#aaddff;mainText=;fontColor=#666666;fontSize=17;spacingLeft=3;" vertex="1" parent="1">
          <mxGeometry x="1720" y="-70" width="150" height="30" as="geometry" />
        </mxCell>
        <mxCell id="8YHsUQJ8EVHz81HyFgtc-41" value="" style="endArrow=classic;startArrow=classic;html=1;rounded=0;fontSize=12;" edge="1" parent="1">
          <mxGeometry width="50" height="50" relative="1" as="geometry">
            <mxPoint x="1410" y="-80" as="sourcePoint" />
            <mxPoint x="1590" y="-80" as="targetPoint" />
            <Array as="points">
              <mxPoint x="1500" y="-80" />
            </Array>
          </mxGeometry>
        </mxCell>
        <mxCell id="QtnJJDsBHs3AhzXChM8A-1" value="" style="rounded=0;whiteSpace=wrap;html=1;comic=0;strokeColor=#000033;strokeWidth=2;fontSize=15;fontColor=#000033;fillColor=none;gradientColor=none;" vertex="1" parent="1">
          <mxGeometry x="990" y="-350" width="1490" height="560" as="geometry" />
        </mxCell>
        <mxCell id="QtnJJDsBHs3AhzXChM8A-3" value="Stretch Feature" style="strokeWidth=1;shadow=0;dashed=0;align=center;html=1;shape=mxgraph.mockup.text.stickyNote2;fontColor=#666666;mainText=;fontSize=17;whiteSpace=wrap;fillColor=#ffffcc;strokeColor=#F62E00;comic=0;" vertex="1" parent="1">
          <mxGeometry x="1460" y="25" width="140" height="135" as="geometry" />
        </mxCell>
      </root>
    </mxGraphModel>
  </diagram>
  <diagram id="82W5omaPNmdb8XHf4uL9" name="Employee-App (Employee)">
    <mxGraphModel dx="1909" dy="998" grid="1" gridSize="10" guides="1" tooltips="1" connect="1" arrows="1" fold="1" page="1" pageScale="1" pageWidth="850" pageHeight="1100" math="0" shadow="0">
      <root>
        <mxCell id="0" />
        <mxCell id="1" parent="0" />
        <mxCell id="v-fz2DX8sQ6e1MabatR1-1" value="" style="verticalLabelPosition=bottom;verticalAlign=top;html=1;shadow=0;dashed=0;strokeWidth=1;shape=mxgraph.android.phone2;strokeColor=#c0c0c0;fontSize=12;" vertex="1" parent="1">
          <mxGeometry x="310" y="30" width="210" height="450" as="geometry" />
        </mxCell>
        <mxCell id="7m190t5VCeHoKwLdriAb-1" value="" style="strokeWidth=1;shadow=0;dashed=0;align=center;html=1;shape=mxgraph.mockup.forms.rrect;rSize=0;strokeColor=#999999;fillColor=#ffffff;fontSize=12;" vertex="1" parent="1">
          <mxGeometry x="327.5" y="190" width="175" height="190" as="geometry" />
        </mxCell>
        <mxCell id="7m190t5VCeHoKwLdriAb-2" value="Sign In" style="strokeWidth=1;shadow=0;dashed=0;align=center;html=1;shape=mxgraph.mockup.forms.anchor;fontSize=12;fontColor=#666666;align=left;resizeWidth=1;spacingLeft=0;" vertex="1" parent="7m190t5VCeHoKwLdriAb-1">
          <mxGeometry width="87.5" height="20" relative="1" as="geometry">
            <mxPoint x="10" y="10" as="offset" />
          </mxGeometry>
        </mxCell>
        <mxCell id="7m190t5VCeHoKwLdriAb-4" value="User Name:" style="strokeWidth=1;shadow=0;dashed=0;align=center;html=1;shape=mxgraph.mockup.forms.anchor;fontSize=12;fontColor=#666666;align=left;resizeWidth=1;spacingLeft=0;" vertex="1" parent="7m190t5VCeHoKwLdriAb-1">
          <mxGeometry width="87.5" height="20" relative="1" as="geometry">
            <mxPoint x="10" y="40" as="offset" />
          </mxGeometry>
        </mxCell>
        <mxCell id="7m190t5VCeHoKwLdriAb-5" value="johndoe" style="strokeWidth=1;shadow=0;dashed=0;align=center;html=1;shape=mxgraph.mockup.forms.rrect;rSize=0;strokeColor=#999999;fontColor=#666666;align=left;spacingLeft=5;resizeWidth=1;fontSize=12;" vertex="1" parent="7m190t5VCeHoKwLdriAb-1">
          <mxGeometry width="131.25" height="25" relative="1" as="geometry">
            <mxPoint x="10" y="60" as="offset" />
          </mxGeometry>
        </mxCell>
        <mxCell id="7m190t5VCeHoKwLdriAb-6" value="Password:" style="strokeWidth=1;shadow=0;dashed=0;align=center;html=1;shape=mxgraph.mockup.forms.anchor;fontSize=12;fontColor=#666666;align=left;resizeWidth=1;spacingLeft=0;" vertex="1" parent="7m190t5VCeHoKwLdriAb-1">
          <mxGeometry width="87.5" height="20" relative="1" as="geometry">
            <mxPoint x="10" y="95" as="offset" />
          </mxGeometry>
        </mxCell>
        <mxCell id="7m190t5VCeHoKwLdriAb-7" value="********" style="strokeWidth=1;shadow=0;dashed=0;align=center;html=1;shape=mxgraph.mockup.forms.rrect;rSize=0;strokeColor=#999999;fontColor=#666666;align=left;spacingLeft=5;resizeWidth=1;fontSize=12;" vertex="1" parent="7m190t5VCeHoKwLdriAb-1">
          <mxGeometry width="131.25" height="25" relative="1" as="geometry">
            <mxPoint x="10" y="115" as="offset" />
          </mxGeometry>
        </mxCell>
        <mxCell id="7m190t5VCeHoKwLdriAb-8" value="SIGN IN" style="strokeWidth=1;shadow=0;dashed=0;align=center;html=1;shape=mxgraph.mockup.forms.rrect;rSize=5;strokeColor=none;fontColor=#ffffff;fillColor=#66bbff;fontSize=16;fontStyle=1;" vertex="1" parent="7m190t5VCeHoKwLdriAb-1">
          <mxGeometry y="1" width="80" height="30" relative="1" as="geometry">
            <mxPoint x="15" y="-40" as="offset" />
          </mxGeometry>
        </mxCell>
        <mxCell id="7m190t5VCeHoKwLdriAb-13" value="&lt;h1&gt;Paradise Villas Employee Portal&lt;/h1&gt;&lt;p&gt;&lt;br&gt;&lt;/p&gt;" style="text;html=1;strokeColor=none;fillColor=none;spacing=5;spacingTop=-20;whiteSpace=wrap;overflow=hidden;rounded=0;fontSize=12;" vertex="1" parent="1">
          <mxGeometry x="320" y="70" width="190" height="120" as="geometry" />
        </mxCell>
        <mxCell id="N6zfdr9sR6NWwe1HU5fg-1" value="" style="verticalLabelPosition=bottom;verticalAlign=top;html=1;shadow=0;dashed=0;strokeWidth=1;shape=mxgraph.android.phone2;strokeColor=#c0c0c0;fontSize=12;" vertex="1" parent="1">
          <mxGeometry x="650" y="30" width="210" height="450" as="geometry" />
        </mxCell>
        <mxCell id="N6zfdr9sR6NWwe1HU5fg-3" value="" style="verticalLabelPosition=bottom;verticalAlign=top;html=1;shadow=0;dashed=0;strokeWidth=1;shape=mxgraph.android.contact_badge_focused;sketch=0;fontSize=12;" vertex="1" parent="1">
          <mxGeometry x="670" y="90" width="40" height="40" as="geometry" />
        </mxCell>
        <mxCell id="N6zfdr9sR6NWwe1HU5fg-4" value="Welcome, John Doe!" style="text;html=1;strokeColor=none;fillColor=none;align=center;verticalAlign=middle;whiteSpace=wrap;rounded=0;fontSize=12;" vertex="1" parent="1">
          <mxGeometry x="725" y="95" width="115" height="30" as="geometry" />
        </mxCell>
        <mxCell id="ObEFoOBofdprzEWbeKc4-1" value="Today&#39;s Schedule" style="text;strokeColor=none;fillColor=none;html=1;fontSize=12;fontStyle=1;verticalAlign=middle;align=center;" vertex="1" parent="1">
          <mxGeometry x="705" y="170" width="100" height="40" as="geometry" />
        </mxCell>
        <mxCell id="ObEFoOBofdprzEWbeKc4-2" value="" style="verticalLabelPosition=bottom;shadow=0;dashed=0;align=center;html=1;verticalAlign=top;strokeWidth=1;shape=mxgraph.mockup.navigation.scrollBar;strokeColor=#999999;barPos=20;fillColor2=#99ddff;strokeColor2=none;direction=north;fontSize=12;" vertex="1" parent="1">
          <mxGeometry x="830" y="200" width="20" height="230" as="geometry" />
        </mxCell>
        <mxCell id="ObEFoOBofdprzEWbeKc4-3" value="9:00 AM" style="text;html=1;strokeColor=none;fillColor=none;align=center;verticalAlign=middle;whiteSpace=wrap;rounded=0;fontSize=12;" vertex="1" parent="1">
          <mxGeometry x="660" y="200" width="60" height="30" as="geometry" />
        </mxCell>
        <mxCell id="ObEFoOBofdprzEWbeKc4-4" value="10:00:AM" style="text;html=1;strokeColor=none;fillColor=none;align=center;verticalAlign=middle;whiteSpace=wrap;rounded=0;fontSize=12;" vertex="1" parent="1">
          <mxGeometry x="660" y="230" width="60" height="30" as="geometry" />
        </mxCell>
        <mxCell id="ObEFoOBofdprzEWbeKc4-5" value="11:00 AM" style="text;html=1;strokeColor=none;fillColor=none;align=center;verticalAlign=middle;whiteSpace=wrap;rounded=0;fontSize=12;" vertex="1" parent="1">
          <mxGeometry x="660" y="260" width="60" height="30" as="geometry" />
        </mxCell>
        <mxCell id="ObEFoOBofdprzEWbeKc4-6" value="12:00 PM" style="text;html=1;strokeColor=none;fillColor=none;align=center;verticalAlign=middle;whiteSpace=wrap;rounded=0;fontSize=12;" vertex="1" parent="1">
          <mxGeometry x="660" y="290" width="60" height="30" as="geometry" />
        </mxCell>
        <mxCell id="ObEFoOBofdprzEWbeKc4-11" value="1:00 PM" style="text;html=1;strokeColor=none;fillColor=none;align=center;verticalAlign=middle;whiteSpace=wrap;rounded=0;fontSize=12;" vertex="1" parent="1">
          <mxGeometry x="660" y="320" width="60" height="30" as="geometry" />
        </mxCell>
        <mxCell id="ObEFoOBofdprzEWbeKc4-12" value="2:00 PM" style="text;html=1;strokeColor=none;fillColor=none;align=center;verticalAlign=middle;whiteSpace=wrap;rounded=0;fontSize=12;" vertex="1" parent="1">
          <mxGeometry x="660" y="350" width="60" height="30" as="geometry" />
        </mxCell>
        <mxCell id="ObEFoOBofdprzEWbeKc4-13" value="3:00 PM" style="text;html=1;strokeColor=none;fillColor=none;align=center;verticalAlign=middle;whiteSpace=wrap;rounded=0;fontSize=12;" vertex="1" parent="1">
          <mxGeometry x="660" y="380" width="60" height="30" as="geometry" />
        </mxCell>
        <mxCell id="ObEFoOBofdprzEWbeKc4-14" value="" style="shape=process;whiteSpace=wrap;html=1;backgroundOutline=1;fontSize=12;" vertex="1" parent="1">
          <mxGeometry x="720" y="210" width="110" height="40" as="geometry" />
        </mxCell>
        <mxCell id="ObEFoOBofdprzEWbeKc4-15" value="Breakfast Shift" style="text;html=1;strokeColor=none;fillColor=none;align=center;verticalAlign=middle;whiteSpace=wrap;rounded=0;fontSize=12;" vertex="1" parent="1">
          <mxGeometry x="745" y="215" width="60" height="30" as="geometry" />
        </mxCell>
        <mxCell id="ObEFoOBofdprzEWbeKc4-17" value="" style="shape=process;whiteSpace=wrap;html=1;backgroundOutline=1;fontSize=12;" vertex="1" parent="1">
          <mxGeometry x="720" y="270" width="110" height="110" as="geometry" />
        </mxCell>
        <mxCell id="ObEFoOBofdprzEWbeKc4-18" value="&lt;div style=&quot;text-align: center;&quot;&gt;&lt;span style=&quot;background-color: initial;&quot;&gt;Ski lift&amp;nbsp;&lt;br&gt;Assistance&lt;/span&gt;&lt;/div&gt;" style="text;whiteSpace=wrap;html=1;fontSize=12;" vertex="1" parent="1">
          <mxGeometry x="735" y="285" width="80" height="40" as="geometry" />
        </mxCell>
        <mxCell id="ObEFoOBofdprzEWbeKc4-19" value="" style="shape=process;whiteSpace=wrap;html=1;backgroundOutline=1;fontSize=12;" vertex="1" parent="1">
          <mxGeometry x="650" y="520" width="210" height="120" as="geometry" />
        </mxCell>
        <mxCell id="ObEFoOBofdprzEWbeKc4-20" value="&lt;h1&gt;&lt;font style=&quot;font-size: 16px;&quot;&gt;Ski Lift Assistance&lt;/font&gt;&lt;/h1&gt;&lt;p&gt;&lt;b&gt;11:00 AM - 2:30 PM&lt;/b&gt;&lt;/p&gt;" style="text;html=1;strokeColor=none;fillColor=none;spacing=5;spacingTop=-20;whiteSpace=wrap;overflow=hidden;rounded=0;fontSize=12;" vertex="1" parent="1">
          <mxGeometry x="670" y="530" width="150" height="70" as="geometry" />
        </mxCell>
        <mxCell id="ObEFoOBofdprzEWbeKc4-22" value="&lt;font style=&quot;font-size: 11px;&quot;&gt;Help people get on and off the ski lit located at Danger Peak.&amp;nbsp;&lt;/font&gt;" style="text;html=1;strokeColor=none;fillColor=none;align=center;verticalAlign=middle;whiteSpace=wrap;rounded=0;fontSize=15;" vertex="1" parent="1">
          <mxGeometry x="675" y="580" width="160" height="60" as="geometry" />
        </mxCell>
        <mxCell id="ObEFoOBofdprzEWbeKc4-23" value="" style="endArrow=classic;html=1;rounded=0;fontSize=11;exitX=0.25;exitY=1;exitDx=0;exitDy=0;entryX=0.5;entryY=0;entryDx=0;entryDy=0;" edge="1" parent="1" source="ObEFoOBofdprzEWbeKc4-17" target="ObEFoOBofdprzEWbeKc4-20">
          <mxGeometry width="50" height="50" relative="1" as="geometry">
            <mxPoint x="740" y="400" as="sourcePoint" />
            <mxPoint x="790" y="350" as="targetPoint" />
          </mxGeometry>
        </mxCell>
        <mxCell id="ObEFoOBofdprzEWbeKc4-24" value="" style="shape=flexArrow;endArrow=classic;html=1;rounded=0;fontSize=11;" edge="1" parent="1">
          <mxGeometry width="50" height="50" relative="1" as="geometry">
            <mxPoint x="540" y="330" as="sourcePoint" />
            <mxPoint x="630" y="330" as="targetPoint" />
          </mxGeometry>
        </mxCell>
        <mxCell id="ObEFoOBofdprzEWbeKc4-25" value="Sign In" style="text;html=1;strokeColor=none;fillColor=none;align=center;verticalAlign=middle;whiteSpace=wrap;rounded=0;fontSize=11;" vertex="1" parent="1">
          <mxGeometry x="540" y="280" width="60" height="30" as="geometry" />
        </mxCell>
        <mxCell id="ObEFoOBofdprzEWbeKc4-26" value="" style="shape=image;html=1;verticalAlign=top;verticalLabelPosition=bottom;labelBackgroundColor=#ffffff;imageAspect=0;aspect=fixed;image=https://cdn1.iconfinder.com/data/icons/ui-essential-17/32/UI_Essential_Outline_1_essential-app-ui-chat-comment-messages-talk-128.png;fontSize=11;" vertex="1" parent="1">
          <mxGeometry x="790" y="130" width="40" height="40" as="geometry" />
        </mxCell>
        <mxCell id="GYKIU7o9G1wwu82OcMxA-1" value="" style="verticalLabelPosition=bottom;verticalAlign=top;html=1;shadow=0;dashed=0;strokeWidth=1;shape=mxgraph.android.phone2;strokeColor=#c0c0c0;fontSize=12;" vertex="1" parent="1">
          <mxGeometry x="1090" width="250" height="490" as="geometry" />
        </mxCell>
        <mxCell id="GYKIU7o9G1wwu82OcMxA-2" value="" style="endArrow=classic;html=1;rounded=0;fontSize=11;exitX=1;exitY=0.5;exitDx=0;exitDy=0;entryX=0.025;entryY=0.231;entryDx=0;entryDy=0;entryPerimeter=0;" edge="1" parent="1" source="ObEFoOBofdprzEWbeKc4-26" target="GYKIU7o9G1wwu82OcMxA-1">
          <mxGeometry width="50" height="50" relative="1" as="geometry">
            <mxPoint x="920" y="155" as="sourcePoint" />
            <mxPoint x="970" y="105" as="targetPoint" />
          </mxGeometry>
        </mxCell>
        <mxCell id="GYKIU7o9G1wwu82OcMxA-3" value="" style="shape=table;startSize=0;container=1;collapsible=0;childLayout=tableLayout;fontSize=16;fixedRows=0;columnLines=1;swimlaneLine=0;comic=0;" vertex="1" parent="1">
          <mxGeometry x="1110" y="175" width="220" height="120" as="geometry" />
        </mxCell>
        <mxCell id="GYKIU7o9G1wwu82OcMxA-4" value="" style="shape=tableRow;horizontal=0;startSize=0;swimlaneHead=0;swimlaneBody=0;strokeColor=inherit;top=0;left=0;bottom=0;right=0;collapsible=0;dropTarget=0;fillColor=none;points=[[0,0.5],[1,0.5]];portConstraint=eastwest;fontSize=16;" vertex="1" parent="GYKIU7o9G1wwu82OcMxA-3">
          <mxGeometry width="220" height="40" as="geometry" />
        </mxCell>
        <mxCell id="GYKIU7o9G1wwu82OcMxA-5" value="Bill" style="shape=partialRectangle;html=1;whiteSpace=wrap;connectable=0;strokeColor=inherit;overflow=hidden;fillColor=none;top=0;left=0;bottom=0;right=0;pointerEvents=1;fontSize=16;" vertex="1" parent="GYKIU7o9G1wwu82OcMxA-4">
          <mxGeometry width="50" height="40" as="geometry">
            <mxRectangle width="50" height="40" as="alternateBounds" />
          </mxGeometry>
        </mxCell>
        <mxCell id="GYKIU7o9G1wwu82OcMxA-6" value="some message" style="shape=partialRectangle;html=1;whiteSpace=wrap;connectable=1;strokeColor=inherit;overflow=hidden;fillColor=none;top=0;left=0;bottom=0;right=0;pointerEvents=1;fontSize=16;movable=1;resizable=1;rotatable=1;deletable=1;editable=1;locked=0;" vertex="1" parent="GYKIU7o9G1wwu82OcMxA-4">
          <mxGeometry x="50" width="120" height="40" as="geometry">
            <mxRectangle width="120" height="40" as="alternateBounds" />
          </mxGeometry>
        </mxCell>
        <mxCell id="GYKIU7o9G1wwu82OcMxA-35" value="5:56 PM" style="shape=partialRectangle;html=1;whiteSpace=wrap;connectable=1;strokeColor=inherit;overflow=hidden;fillColor=none;top=0;left=0;bottom=0;right=0;pointerEvents=1;fontSize=16;movable=1;resizable=1;rotatable=1;deletable=1;editable=1;locked=0;" vertex="1" parent="GYKIU7o9G1wwu82OcMxA-4">
          <mxGeometry x="170" width="50" height="40" as="geometry">
            <mxRectangle width="50" height="40" as="alternateBounds" />
          </mxGeometry>
        </mxCell>
        <mxCell id="GYKIU7o9G1wwu82OcMxA-8" value="" style="shape=tableRow;horizontal=0;startSize=0;swimlaneHead=0;swimlaneBody=0;strokeColor=inherit;top=0;left=0;bottom=0;right=0;collapsible=0;dropTarget=0;fillColor=none;points=[[0,0.5],[1,0.5]];portConstraint=eastwest;fontSize=16;" vertex="1" parent="GYKIU7o9G1wwu82OcMxA-3">
          <mxGeometry y="40" width="220" height="40" as="geometry" />
        </mxCell>
        <mxCell id="GYKIU7o9G1wwu82OcMxA-9" value="Henry" style="shape=partialRectangle;html=1;whiteSpace=wrap;connectable=0;strokeColor=inherit;overflow=hidden;fillColor=none;top=0;left=0;bottom=0;right=0;pointerEvents=1;fontSize=16;" vertex="1" parent="GYKIU7o9G1wwu82OcMxA-8">
          <mxGeometry width="50" height="40" as="geometry">
            <mxRectangle width="50" height="40" as="alternateBounds" />
          </mxGeometry>
        </mxCell>
        <mxCell id="GYKIU7o9G1wwu82OcMxA-10" value="some message" style="shape=partialRectangle;html=1;whiteSpace=wrap;connectable=0;strokeColor=inherit;overflow=hidden;fillColor=none;top=0;left=0;bottom=0;right=0;pointerEvents=1;fontSize=16;" vertex="1" parent="GYKIU7o9G1wwu82OcMxA-8">
          <mxGeometry x="50" width="120" height="40" as="geometry">
            <mxRectangle width="120" height="40" as="alternateBounds" />
          </mxGeometry>
        </mxCell>
        <mxCell id="GYKIU7o9G1wwu82OcMxA-36" value="4:15 PM" style="shape=partialRectangle;html=1;whiteSpace=wrap;connectable=0;strokeColor=inherit;overflow=hidden;fillColor=none;top=0;left=0;bottom=0;right=0;pointerEvents=1;fontSize=16;" vertex="1" parent="GYKIU7o9G1wwu82OcMxA-8">
          <mxGeometry x="170" width="50" height="40" as="geometry">
            <mxRectangle width="50" height="40" as="alternateBounds" />
          </mxGeometry>
        </mxCell>
        <mxCell id="GYKIU7o9G1wwu82OcMxA-12" value="" style="shape=tableRow;horizontal=0;startSize=0;swimlaneHead=0;swimlaneBody=0;strokeColor=inherit;top=0;left=0;bottom=0;right=0;collapsible=0;dropTarget=0;fillColor=none;points=[[0,0.5],[1,0.5]];portConstraint=eastwest;fontSize=16;" vertex="1" parent="GYKIU7o9G1wwu82OcMxA-3">
          <mxGeometry y="80" width="220" height="40" as="geometry" />
        </mxCell>
        <mxCell id="GYKIU7o9G1wwu82OcMxA-13" value="Jane" style="shape=partialRectangle;html=1;whiteSpace=wrap;connectable=0;strokeColor=inherit;overflow=hidden;fillColor=none;top=0;left=0;bottom=0;right=0;pointerEvents=1;fontSize=16;" vertex="1" parent="GYKIU7o9G1wwu82OcMxA-12">
          <mxGeometry width="50" height="40" as="geometry">
            <mxRectangle width="50" height="40" as="alternateBounds" />
          </mxGeometry>
        </mxCell>
        <mxCell id="GYKIU7o9G1wwu82OcMxA-14" value="some message" style="shape=partialRectangle;html=1;whiteSpace=wrap;connectable=0;strokeColor=inherit;overflow=hidden;fillColor=none;top=0;left=0;bottom=0;right=0;pointerEvents=1;fontSize=16;" vertex="1" parent="GYKIU7o9G1wwu82OcMxA-12">
          <mxGeometry x="50" width="120" height="40" as="geometry">
            <mxRectangle width="120" height="40" as="alternateBounds" />
          </mxGeometry>
        </mxCell>
        <mxCell id="GYKIU7o9G1wwu82OcMxA-37" value="10:21 AM" style="shape=partialRectangle;html=1;whiteSpace=wrap;connectable=0;strokeColor=inherit;overflow=hidden;fillColor=none;top=0;left=0;bottom=0;right=0;pointerEvents=1;fontSize=16;" vertex="1" parent="GYKIU7o9G1wwu82OcMxA-12">
          <mxGeometry x="170" width="50" height="40" as="geometry">
            <mxRectangle width="50" height="40" as="alternateBounds" />
          </mxGeometry>
        </mxCell>
        <mxCell id="GYKIU7o9G1wwu82OcMxA-34" value="" style="shape=image;html=1;verticalAlign=top;verticalLabelPosition=bottom;labelBackgroundColor=#ffffff;imageAspect=0;aspect=fixed;image=https://cdn4.iconfinder.com/data/icons/computer-and-web-2/500/Draw-128.png;comic=0;fontSize=11;" vertex="1" parent="1">
          <mxGeometry x="1280" y="380" width="50" height="50" as="geometry" />
        </mxCell>
        <mxCell id="GYKIU7o9G1wwu82OcMxA-38" value="Search" style="strokeWidth=1;shadow=0;dashed=0;align=center;html=1;shape=mxgraph.mockup.forms.searchBox;strokeColor=#999999;mainText=;strokeColor2=#008cff;fontColor=#666666;fontSize=17;align=left;spacingLeft=3;comic=0;" vertex="1" parent="1">
          <mxGeometry x="1110" y="390" width="150" height="30" as="geometry" />
        </mxCell>
        <mxCell id="GYKIU7o9G1wwu82OcMxA-39" value="" style="shape=table;startSize=0;container=1;collapsible=0;childLayout=tableLayout;fontSize=16;fixedRows=0;columnLines=1;swimlaneLine=0;comic=0;fillColor=none;strokeColor=#6c8ebf;strokeWidth=2;swimlaneFillColor=default;" vertex="1" parent="1">
          <mxGeometry x="1110" y="95" width="220" height="80" as="geometry" />
        </mxCell>
        <mxCell id="GYKIU7o9G1wwu82OcMxA-40" value="" style="shape=tableRow;horizontal=0;startSize=0;swimlaneHead=0;swimlaneBody=0;strokeColor=#6c8ebf;top=0;left=0;bottom=0;right=0;collapsible=0;dropTarget=0;fillColor=none;points=[[0,0.5],[1,0.5]];portConstraint=eastwest;fontSize=16;strokeWidth=2;swimlaneFillColor=default;" vertex="1" parent="GYKIU7o9G1wwu82OcMxA-39">
          <mxGeometry width="220" height="40" as="geometry" />
        </mxCell>
        <mxCell id="GYKIU7o9G1wwu82OcMxA-41" value="Bill" style="shape=partialRectangle;html=1;whiteSpace=wrap;connectable=0;strokeColor=#6c8ebf;overflow=hidden;fillColor=none;top=0;left=0;bottom=0;right=0;pointerEvents=1;fontSize=16;strokeWidth=2;swimlaneFillColor=default;" vertex="1" parent="GYKIU7o9G1wwu82OcMxA-40">
          <mxGeometry width="50" height="40" as="geometry">
            <mxRectangle width="50" height="40" as="alternateBounds" />
          </mxGeometry>
        </mxCell>
        <mxCell id="GYKIU7o9G1wwu82OcMxA-42" value="some message" style="shape=partialRectangle;html=1;whiteSpace=wrap;connectable=1;strokeColor=#6c8ebf;overflow=hidden;fillColor=none;top=0;left=0;bottom=0;right=0;pointerEvents=1;fontSize=16;movable=1;resizable=1;rotatable=1;deletable=1;editable=1;locked=0;strokeWidth=2;swimlaneFillColor=default;" vertex="1" parent="GYKIU7o9G1wwu82OcMxA-40">
          <mxGeometry x="50" width="120" height="40" as="geometry">
            <mxRectangle width="120" height="40" as="alternateBounds" />
          </mxGeometry>
        </mxCell>
        <mxCell id="GYKIU7o9G1wwu82OcMxA-43" value="7:21 PM" style="shape=partialRectangle;html=1;whiteSpace=wrap;connectable=1;strokeColor=#6c8ebf;overflow=hidden;fillColor=none;top=0;left=0;bottom=0;right=0;pointerEvents=1;fontSize=16;movable=1;resizable=1;rotatable=1;deletable=1;editable=1;locked=0;strokeWidth=2;swimlaneFillColor=default;" vertex="1" parent="GYKIU7o9G1wwu82OcMxA-40">
          <mxGeometry x="170" width="50" height="40" as="geometry">
            <mxRectangle width="50" height="40" as="alternateBounds" />
          </mxGeometry>
        </mxCell>
        <mxCell id="GYKIU7o9G1wwu82OcMxA-44" value="" style="shape=tableRow;horizontal=0;startSize=0;swimlaneHead=0;swimlaneBody=0;strokeColor=#6c8ebf;top=0;left=0;bottom=0;right=0;collapsible=0;dropTarget=0;fillColor=none;points=[[0,0.5],[1,0.5]];portConstraint=eastwest;fontSize=16;strokeWidth=2;swimlaneFillColor=default;" vertex="1" parent="GYKIU7o9G1wwu82OcMxA-39">
          <mxGeometry y="40" width="220" height="40" as="geometry" />
        </mxCell>
        <mxCell id="GYKIU7o9G1wwu82OcMxA-45" value="Henry" style="shape=partialRectangle;html=1;whiteSpace=wrap;connectable=0;strokeColor=#6c8ebf;overflow=hidden;fillColor=none;top=0;left=0;bottom=0;right=0;pointerEvents=1;fontSize=16;strokeWidth=2;swimlaneFillColor=default;" vertex="1" parent="GYKIU7o9G1wwu82OcMxA-44">
          <mxGeometry width="50" height="40" as="geometry">
            <mxRectangle width="50" height="40" as="alternateBounds" />
          </mxGeometry>
        </mxCell>
        <mxCell id="GYKIU7o9G1wwu82OcMxA-46" value="some message" style="shape=partialRectangle;html=1;whiteSpace=wrap;connectable=0;strokeColor=#6c8ebf;overflow=hidden;fillColor=none;top=0;left=0;bottom=0;right=0;pointerEvents=1;fontSize=16;strokeWidth=2;swimlaneFillColor=default;" vertex="1" parent="GYKIU7o9G1wwu82OcMxA-44">
          <mxGeometry x="50" width="120" height="40" as="geometry">
            <mxRectangle width="120" height="40" as="alternateBounds" />
          </mxGeometry>
        </mxCell>
        <mxCell id="GYKIU7o9G1wwu82OcMxA-47" value="6:11 PM" style="shape=partialRectangle;html=1;whiteSpace=wrap;connectable=0;strokeColor=#6c8ebf;overflow=hidden;fillColor=none;top=0;left=0;bottom=0;right=0;pointerEvents=1;fontSize=16;strokeWidth=2;swimlaneFillColor=default;" vertex="1" parent="GYKIU7o9G1wwu82OcMxA-44">
          <mxGeometry x="170" width="50" height="40" as="geometry">
            <mxRectangle width="50" height="40" as="alternateBounds" />
          </mxGeometry>
        </mxCell>
        <mxCell id="GYKIU7o9G1wwu82OcMxA-52" value="Recieved" style="strokeWidth=1;shadow=0;dashed=0;align=center;html=1;shape=mxgraph.mockup.buttons.onOffButton;gradientColor=none;strokeColor=#999999;buttonState=on;fillColor2=#008cff;fontColor=#ffffff;fontSize=17;mainText=;spacingRight=40;fontStyle=1;comic=0;" vertex="1" parent="1">
          <mxGeometry x="1110" y="330" width="150" height="20" as="geometry" />
        </mxCell>
        <mxCell id="GYKIU7o9G1wwu82OcMxA-66" value="" style="dashed=0;aspect=fixed;verticalLabelPosition=bottom;verticalAlign=top;align=center;shape=mxgraph.gmdl.reply;strokeColor=none;fillColor=#737373;shadow=0;sketch=0;comic=0;strokeWidth=2;fontSize=11;" vertex="1" parent="1">
          <mxGeometry x="1265" y="121" width="10" height="9" as="geometry" />
        </mxCell>
        <mxCell id="GYKIU7o9G1wwu82OcMxA-67" value="" style="dashed=0;aspect=fixed;verticalLabelPosition=bottom;verticalAlign=top;align=center;shape=mxgraph.gmdl.reply;strokeColor=none;fillColor=#737373;shadow=0;sketch=0;comic=0;strokeWidth=2;fontSize=11;" vertex="1" parent="1">
          <mxGeometry x="1265" y="161" width="10" height="9" as="geometry" />
        </mxCell>
        <mxCell id="GYKIU7o9G1wwu82OcMxA-68" value="" style="dashed=0;aspect=fixed;verticalLabelPosition=bottom;verticalAlign=top;align=center;shape=mxgraph.gmdl.reply;strokeColor=none;fillColor=#737373;shadow=0;sketch=0;comic=0;strokeWidth=2;fontSize=11;" vertex="1" parent="1">
          <mxGeometry x="1265" y="206" width="10" height="9" as="geometry" />
        </mxCell>
        <mxCell id="GYKIU7o9G1wwu82OcMxA-69" value="" style="dashed=0;aspect=fixed;verticalLabelPosition=bottom;verticalAlign=top;align=center;shape=mxgraph.gmdl.reply;strokeColor=none;fillColor=#737373;shadow=0;sketch=0;comic=0;strokeWidth=2;fontSize=11;" vertex="1" parent="1">
          <mxGeometry x="1265" y="245" width="10" height="9" as="geometry" />
        </mxCell>
        <mxCell id="GYKIU7o9G1wwu82OcMxA-70" value="" style="dashed=0;aspect=fixed;verticalLabelPosition=bottom;verticalAlign=top;align=center;shape=mxgraph.gmdl.reply;strokeColor=none;fillColor=#737373;shadow=0;sketch=0;comic=0;strokeWidth=2;fontSize=11;" vertex="1" parent="1">
          <mxGeometry x="1265" y="285" width="10" height="9" as="geometry" />
        </mxCell>
        <mxCell id="GYKIU7o9G1wwu82OcMxA-71" value="" style="verticalLabelPosition=bottom;verticalAlign=top;html=1;shadow=0;dashed=0;strokeWidth=1;shape=mxgraph.android.phone2;strokeColor=#c0c0c0;fontSize=12;" vertex="1" parent="1">
          <mxGeometry x="1440" y="40" width="210" height="450" as="geometry" />
        </mxCell>
        <mxCell id="GYKIU7o9G1wwu82OcMxA-72" value="" style="endArrow=classic;html=1;rounded=0;fontSize=11;exitX=1;exitY=0.5;exitDx=0;exitDy=0;entryX=-0.004;entryY=0.741;entryDx=0;entryDy=0;entryPerimeter=0;" edge="1" parent="1" source="GYKIU7o9G1wwu82OcMxA-34" target="GYKIU7o9G1wwu82OcMxA-71">
          <mxGeometry width="50" height="50" relative="1" as="geometry">
            <mxPoint x="1370" y="410" as="sourcePoint" />
            <mxPoint x="1420" y="360" as="targetPoint" />
          </mxGeometry>
        </mxCell>
        <mxCell id="GYKIU7o9G1wwu82OcMxA-73" value="" style="verticalLabelPosition=bottom;verticalAlign=top;html=1;shadow=0;dashed=0;strokeWidth=1;shape=mxgraph.android.keyboard;sketch=0;comic=0;strokeColor=#000033;fontSize=11;fillColor=none;gradientColor=none;" vertex="1" parent="1">
          <mxGeometry x="1452.5" y="345" width="185" height="100" as="geometry" />
        </mxCell>
        <mxCell id="GYKIU7o9G1wwu82OcMxA-75" value="Your message here" style="strokeWidth=1;shadow=0;dashed=0;align=center;html=1;shape=mxgraph.mockup.text.textBox;fontColor=#666666;align=left;fontSize=17;spacingLeft=4;spacingTop=-3;strokeColor=#666666;mainText=;comic=0;fillColor=none;gradientColor=none;" vertex="1" parent="1">
          <mxGeometry x="1452.5" y="115" width="187.5" height="170" as="geometry" />
        </mxCell>
        <mxCell id="GYKIU7o9G1wwu82OcMxA-76" value="recipient" style="strokeWidth=1;shadow=0;dashed=0;align=center;html=1;shape=mxgraph.mockup.forms.comboBox;strokeColor=#999999;fillColor=#ddeeff;align=left;fillColor2=#aaddff;mainText=;fontColor=#666666;fontSize=17;spacingLeft=3;comic=0;" vertex="1" parent="1">
          <mxGeometry x="1471.25" y="300" width="148.75" height="30" as="geometry" />
        </mxCell>
        <mxCell id="Jffq_z_Rk32Qi6BEQNmz-1" value="" style="sketch=0;aspect=fixed;pointerEvents=1;shadow=0;dashed=0;html=1;strokeColor=none;labelPosition=center;verticalLabelPosition=bottom;verticalAlign=top;align=center;fillColor=#00188D;shape=mxgraph.mscae.enterprise.calendar;comic=0;strokeWidth=2;fontSize=17;fontColor=#00CC00;" vertex="1" parent="1">
          <mxGeometry x="730" y="130" width="50" height="41" as="geometry" />
        </mxCell>
        <mxCell id="Jffq_z_Rk32Qi6BEQNmz-3" value="" style="verticalLabelPosition=bottom;verticalAlign=top;html=1;shadow=0;dashed=0;strokeWidth=1;shape=mxgraph.android.phone2;strokeColor=#c0c0c0;fontSize=12;" vertex="1" parent="1">
          <mxGeometry x="1115" y="520" width="210" height="450" as="geometry" />
        </mxCell>
        <mxCell id="Jffq_z_Rk32Qi6BEQNmz-4" value="" style="verticalLabelPosition=bottom;verticalAlign=top;html=1;shadow=0;dashed=0;strokeWidth=1;shape=mxgraph.android.switch_off;fillColor=#666666;sketch=0;comic=0;strokeColor=#000033;fontSize=17;fontColor=#00CC00;" vertex="1" parent="1">
          <mxGeometry x="1140" y="660" width="80" height="20" as="geometry" />
        </mxCell>
        <mxCell id="Jffq_z_Rk32Qi6BEQNmz-5" value="" style="verticalLabelPosition=bottom;verticalAlign=top;html=1;shadow=0;dashed=0;strokeWidth=1;shape=mxgraph.android.switch_off;fillColor=#666666;sketch=0;comic=0;strokeColor=#000033;fontSize=17;fontColor=#00CC00;" vertex="1" parent="1">
          <mxGeometry x="1140" y="700" width="80" height="20" as="geometry" />
        </mxCell>
        <mxCell id="Jffq_z_Rk32Qi6BEQNmz-6" value="" style="verticalLabelPosition=bottom;verticalAlign=top;html=1;shadow=0;dashed=0;strokeWidth=1;shape=mxgraph.android.switch_off;fillColor=#666666;sketch=0;comic=0;strokeColor=#000033;fontSize=17;fontColor=#00CC00;" vertex="1" parent="1">
          <mxGeometry x="1140" y="740" width="80" height="20" as="geometry" />
        </mxCell>
        <mxCell id="Jffq_z_Rk32Qi6BEQNmz-7" value="" style="verticalLabelPosition=bottom;verticalAlign=top;html=1;shadow=0;dashed=0;strokeWidth=1;shape=mxgraph.android.switch_off;fillColor=#666666;sketch=0;comic=0;strokeColor=#000033;fontSize=17;fontColor=#00CC00;" vertex="1" parent="1">
          <mxGeometry x="1140" y="780" width="80" height="20" as="geometry" />
        </mxCell>
        <mxCell id="Jffq_z_Rk32Qi6BEQNmz-8" value="" style="verticalLabelPosition=bottom;verticalAlign=top;html=1;shadow=0;dashed=0;strokeWidth=1;shape=mxgraph.android.switch_off;fillColor=#666666;sketch=0;comic=0;strokeColor=#000033;fontSize=17;fontColor=#00CC00;" vertex="1" parent="1">
          <mxGeometry x="1140" y="820" width="80" height="20" as="geometry" />
        </mxCell>
        <mxCell id="Jffq_z_Rk32Qi6BEQNmz-9" value="" style="verticalLabelPosition=bottom;verticalAlign=top;html=1;shadow=0;dashed=0;strokeWidth=1;shape=mxgraph.android.switch_off;fillColor=#666666;sketch=0;comic=0;strokeColor=#000033;fontSize=17;fontColor=#00CC00;" vertex="1" parent="1">
          <mxGeometry x="1140" y="860" width="80" height="20" as="geometry" />
        </mxCell>
        <mxCell id="Jffq_z_Rk32Qi6BEQNmz-10" value="" style="verticalLabelPosition=bottom;verticalAlign=top;html=1;shadow=0;dashed=0;strokeWidth=1;shape=mxgraph.android.switch_off;fillColor=#666666;sketch=0;comic=0;strokeColor=#000033;fontSize=17;fontColor=#00CC00;" vertex="1" parent="1">
          <mxGeometry x="1140" y="900" width="80" height="20" as="geometry" />
        </mxCell>
        <mxCell id="Jffq_z_Rk32Qi6BEQNmz-11" value="&lt;h1 style=&quot;font-size: 16px;&quot;&gt;&lt;font style=&quot;font-size: 16px;&quot; color=&quot;#000033&quot;&gt;Week of 2/20&lt;/font&gt;&lt;/h1&gt;" style="text;html=1;strokeColor=none;fillColor=none;spacing=5;spacingTop=-20;whiteSpace=wrap;overflow=hidden;rounded=0;fontSize=17;fontColor=#00CC00;" vertex="1" parent="1">
          <mxGeometry x="1160" y="610" width="120" height="20" as="geometry" />
        </mxCell>
        <mxCell id="Jffq_z_Rk32Qi6BEQNmz-12" value="" style="endArrow=classic;html=1;rounded=0;fontSize=16;fontColor=#000033;exitX=1;exitY=1;exitDx=0;exitDy=0;exitPerimeter=0;entryX=0.021;entryY=0.153;entryDx=0;entryDy=0;entryPerimeter=0;" edge="1" parent="1" source="Jffq_z_Rk32Qi6BEQNmz-1" target="Jffq_z_Rk32Qi6BEQNmz-3">
          <mxGeometry width="50" height="50" relative="1" as="geometry">
            <mxPoint x="970" y="640" as="sourcePoint" />
            <mxPoint x="1020" y="590" as="targetPoint" />
          </mxGeometry>
        </mxCell>
        <mxCell id="H21wxvYPFVVkaGIF8J-H-1" value="" style="verticalLabelPosition=bottom;verticalAlign=top;html=1;shadow=0;dashed=0;strokeWidth=1;shape=mxgraph.android.phone2;strokeColor=#c0c0c0;fontSize=12;" vertex="1" parent="1">
          <mxGeometry x="1610" y="525" width="210" height="450" as="geometry" />
        </mxCell>
        <mxCell id="H21wxvYPFVVkaGIF8J-H-2" value="" style="verticalLabelPosition=bottom;verticalAlign=top;html=1;shadow=0;dashed=0;strokeWidth=1;shape=mxgraph.android.switch_off;fillColor=#666666;sketch=0;comic=0;strokeColor=#000033;fontSize=17;fontColor=#00CC00;" vertex="1" parent="1">
          <mxGeometry x="1635" y="665" width="80" height="20" as="geometry" />
        </mxCell>
        <mxCell id="H21wxvYPFVVkaGIF8J-H-3" value="" style="verticalLabelPosition=bottom;verticalAlign=top;html=1;shadow=0;dashed=0;strokeWidth=1;shape=mxgraph.android.switch_off;fillColor=#666666;sketch=0;comic=0;strokeColor=#000033;fontSize=17;fontColor=#00CC00;" vertex="1" parent="1">
          <mxGeometry x="1635" y="705" width="80" height="20" as="geometry" />
        </mxCell>
        <mxCell id="H21wxvYPFVVkaGIF8J-H-4" value="" style="verticalLabelPosition=bottom;verticalAlign=top;html=1;shadow=0;dashed=0;strokeWidth=1;shape=mxgraph.android.switch_off;fillColor=#666666;sketch=0;comic=0;strokeColor=#000033;fontSize=17;fontColor=#00CC00;" vertex="1" parent="1">
          <mxGeometry x="1635" y="745" width="80" height="20" as="geometry" />
        </mxCell>
        <mxCell id="H21wxvYPFVVkaGIF8J-H-5" value="" style="verticalLabelPosition=bottom;verticalAlign=top;html=1;shadow=0;dashed=0;strokeWidth=1;shape=mxgraph.android.switch_off;fillColor=#666666;sketch=0;comic=0;strokeColor=#000033;fontSize=17;fontColor=#00CC00;" vertex="1" parent="1">
          <mxGeometry x="1635" y="785" width="80" height="20" as="geometry" />
        </mxCell>
        <mxCell id="H21wxvYPFVVkaGIF8J-H-6" value="" style="verticalLabelPosition=bottom;verticalAlign=top;html=1;shadow=0;dashed=0;strokeWidth=1;shape=mxgraph.android.switch_off;fillColor=#666666;sketch=0;comic=0;strokeColor=#000033;fontSize=17;fontColor=#00CC00;" vertex="1" parent="1">
          <mxGeometry x="1635" y="825" width="80" height="20" as="geometry" />
        </mxCell>
        <mxCell id="H21wxvYPFVVkaGIF8J-H-7" value="" style="verticalLabelPosition=bottom;verticalAlign=top;html=1;shadow=0;dashed=0;strokeWidth=1;shape=mxgraph.android.switch_off;fillColor=#666666;sketch=0;comic=0;strokeColor=#000033;fontSize=17;fontColor=#00CC00;" vertex="1" parent="1">
          <mxGeometry x="1635" y="865" width="80" height="20" as="geometry" />
        </mxCell>
        <mxCell id="H21wxvYPFVVkaGIF8J-H-8" value="" style="verticalLabelPosition=bottom;verticalAlign=top;html=1;shadow=0;dashed=0;strokeWidth=1;shape=mxgraph.android.switch_off;fillColor=#666666;sketch=0;comic=0;strokeColor=#000033;fontSize=17;fontColor=#00CC00;" vertex="1" parent="1">
          <mxGeometry x="1635" y="905" width="80" height="20" as="geometry" />
        </mxCell>
        <mxCell id="H21wxvYPFVVkaGIF8J-H-9" value="&lt;h1 style=&quot;font-size: 16px;&quot;&gt;&lt;font style=&quot;font-size: 16px;&quot; color=&quot;#000033&quot;&gt;Week of 2/27&lt;/font&gt;&lt;/h1&gt;" style="text;html=1;strokeColor=none;fillColor=none;spacing=5;spacingTop=-20;whiteSpace=wrap;overflow=hidden;rounded=0;fontSize=17;fontColor=#00CC00;" vertex="1" parent="1">
          <mxGeometry x="1655" y="615" width="120" height="20" as="geometry" />
        </mxCell>
        <mxCell id="H21wxvYPFVVkaGIF8J-H-10" value="" style="endArrow=classic;startArrow=classic;html=1;rounded=0;fontSize=15;fontColor=#000033;entryX=-0.023;entryY=0.541;entryDx=0;entryDy=0;entryPerimeter=0;exitX=0.984;exitY=0.559;exitDx=0;exitDy=0;exitPerimeter=0;" edge="1" parent="1" source="Jffq_z_Rk32Qi6BEQNmz-3" target="H21wxvYPFVVkaGIF8J-H-1">
          <mxGeometry width="50" height="50" relative="1" as="geometry">
            <mxPoint x="1000" y="530" as="sourcePoint" />
            <mxPoint x="1050" y="480" as="targetPoint" />
            <Array as="points">
              <mxPoint x="1450" y="770" />
            </Array>
          </mxGeometry>
        </mxCell>
      </root>
    </mxGraphModel>
  </diagram>
  <diagram id="zIlJBDUzpFHP3FqVZnBR" name="Employee- App (Manager)">
    <mxGraphModel dx="2759" dy="2098" grid="1" gridSize="10" guides="1" tooltips="1" connect="1" arrows="1" fold="1" page="1" pageScale="1" pageWidth="850" pageHeight="1100" math="0" shadow="0">
      <root>
        <mxCell id="0" />
        <mxCell id="1" parent="0" />
        <mxCell id="tHTh7QgnnBY2LIuFo3Qx-1" value="" style="verticalLabelPosition=bottom;verticalAlign=top;html=1;shadow=0;dashed=0;strokeWidth=1;shape=mxgraph.android.phone2;strokeColor=#c0c0c0;fontSize=12;" vertex="1" parent="1">
          <mxGeometry x="20" y="80" width="210" height="450" as="geometry" />
        </mxCell>
        <mxCell id="tHTh7QgnnBY2LIuFo3Qx-2" value="" style="strokeWidth=1;shadow=0;dashed=0;align=center;html=1;shape=mxgraph.mockup.forms.rrect;rSize=0;strokeColor=#999999;fillColor=#ffffff;fontSize=12;" vertex="1" parent="1">
          <mxGeometry x="37.5" y="240" width="175" height="190" as="geometry" />
        </mxCell>
        <mxCell id="tHTh7QgnnBY2LIuFo3Qx-3" value="Sign In" style="strokeWidth=1;shadow=0;dashed=0;align=center;html=1;shape=mxgraph.mockup.forms.anchor;fontSize=12;fontColor=#666666;align=left;resizeWidth=1;spacingLeft=0;" vertex="1" parent="tHTh7QgnnBY2LIuFo3Qx-2">
          <mxGeometry width="87.5" height="20" relative="1" as="geometry">
            <mxPoint x="10" y="10" as="offset" />
          </mxGeometry>
        </mxCell>
        <mxCell id="tHTh7QgnnBY2LIuFo3Qx-4" value="User Name:" style="strokeWidth=1;shadow=0;dashed=0;align=center;html=1;shape=mxgraph.mockup.forms.anchor;fontSize=12;fontColor=#666666;align=left;resizeWidth=1;spacingLeft=0;" vertex="1" parent="tHTh7QgnnBY2LIuFo3Qx-2">
          <mxGeometry width="87.5" height="20" relative="1" as="geometry">
            <mxPoint x="10" y="40" as="offset" />
          </mxGeometry>
        </mxCell>
        <mxCell id="tHTh7QgnnBY2LIuFo3Qx-5" value="johndoe" style="strokeWidth=1;shadow=0;dashed=0;align=center;html=1;shape=mxgraph.mockup.forms.rrect;rSize=0;strokeColor=#999999;fontColor=#666666;align=left;spacingLeft=5;resizeWidth=1;fontSize=12;" vertex="1" parent="tHTh7QgnnBY2LIuFo3Qx-2">
          <mxGeometry width="131.25" height="25" relative="1" as="geometry">
            <mxPoint x="10" y="60" as="offset" />
          </mxGeometry>
        </mxCell>
        <mxCell id="tHTh7QgnnBY2LIuFo3Qx-6" value="Password:" style="strokeWidth=1;shadow=0;dashed=0;align=center;html=1;shape=mxgraph.mockup.forms.anchor;fontSize=12;fontColor=#666666;align=left;resizeWidth=1;spacingLeft=0;" vertex="1" parent="tHTh7QgnnBY2LIuFo3Qx-2">
          <mxGeometry width="87.5" height="20" relative="1" as="geometry">
            <mxPoint x="10" y="95" as="offset" />
          </mxGeometry>
        </mxCell>
        <mxCell id="tHTh7QgnnBY2LIuFo3Qx-7" value="********" style="strokeWidth=1;shadow=0;dashed=0;align=center;html=1;shape=mxgraph.mockup.forms.rrect;rSize=0;strokeColor=#999999;fontColor=#666666;align=left;spacingLeft=5;resizeWidth=1;fontSize=12;" vertex="1" parent="tHTh7QgnnBY2LIuFo3Qx-2">
          <mxGeometry width="131.25" height="25" relative="1" as="geometry">
            <mxPoint x="10" y="115" as="offset" />
          </mxGeometry>
        </mxCell>
        <mxCell id="tHTh7QgnnBY2LIuFo3Qx-8" value="SIGN IN" style="strokeWidth=1;shadow=0;dashed=0;align=center;html=1;shape=mxgraph.mockup.forms.rrect;rSize=5;strokeColor=none;fontColor=#ffffff;fillColor=#66bbff;fontSize=16;fontStyle=1;" vertex="1" parent="tHTh7QgnnBY2LIuFo3Qx-2">
          <mxGeometry y="1" width="80" height="30" relative="1" as="geometry">
            <mxPoint x="15" y="-40" as="offset" />
          </mxGeometry>
        </mxCell>
        <mxCell id="tHTh7QgnnBY2LIuFo3Qx-9" value="&lt;h1&gt;Paradise Villas Employee Portal&lt;/h1&gt;&lt;p&gt;&lt;br&gt;&lt;/p&gt;" style="text;html=1;strokeColor=none;fillColor=none;spacing=5;spacingTop=-20;whiteSpace=wrap;overflow=hidden;rounded=0;fontSize=12;" vertex="1" parent="1">
          <mxGeometry x="30" y="120" width="190" height="120" as="geometry" />
        </mxCell>
        <mxCell id="tHTh7QgnnBY2LIuFo3Qx-10" value="" style="shape=flexArrow;endArrow=classic;html=1;rounded=0;fontSize=11;" edge="1" parent="1">
          <mxGeometry width="50" height="50" relative="1" as="geometry">
            <mxPoint x="250" y="380" as="sourcePoint" />
            <mxPoint x="340" y="380" as="targetPoint" />
          </mxGeometry>
        </mxCell>
        <mxCell id="tHTh7QgnnBY2LIuFo3Qx-11" value="Sign In" style="text;html=1;strokeColor=none;fillColor=none;align=center;verticalAlign=middle;whiteSpace=wrap;rounded=0;fontSize=11;" vertex="1" parent="1">
          <mxGeometry x="250" y="330" width="60" height="30" as="geometry" />
        </mxCell>
        <mxCell id="tHTh7QgnnBY2LIuFo3Qx-12" value="" style="verticalLabelPosition=bottom;verticalAlign=top;html=1;shadow=0;dashed=0;strokeWidth=1;shape=mxgraph.android.phone2;strokeColor=#c0c0c0;fontSize=12;" vertex="1" parent="1">
          <mxGeometry x="750" y="-10" width="210" height="450" as="geometry" />
        </mxCell>
        <mxCell id="Ox7IzEuwLpBc-EEw2g24-1" value="Monday 2/20" style="strokeWidth=1;shadow=0;dashed=0;align=center;html=1;shape=mxgraph.mockup.forms.comboBox;strokeColor=#999999;fillColor=#ddeeff;align=left;fillColor2=#aaddff;mainText=;fontColor=#666666;fontSize=17;spacingLeft=3;comic=0;" vertex="1" parent="1">
          <mxGeometry x="780" y="340" width="150" height="30" as="geometry" />
        </mxCell>
        <mxCell id="oftK6sn-_rAUm3IxDmFb-49" value="" style="shape=table;startSize=0;container=1;collapsible=0;childLayout=tableLayout;fontSize=16;comic=0;strokeColor=#000033;strokeWidth=2;fillColor=none;gradientColor=none;" vertex="1" parent="1">
          <mxGeometry x="793" y="170" width="124" height="90" as="geometry" />
        </mxCell>
        <mxCell id="oftK6sn-_rAUm3IxDmFb-50" value="" style="shape=tableRow;horizontal=0;startSize=0;swimlaneHead=0;swimlaneBody=0;strokeColor=inherit;top=0;left=0;bottom=0;right=0;collapsible=0;dropTarget=0;fillColor=none;points=[[0,0.5],[1,0.5]];portConstraint=eastwest;fontSize=16;comic=0;strokeWidth=2;" vertex="1" parent="oftK6sn-_rAUm3IxDmFb-49">
          <mxGeometry width="124" height="30" as="geometry" />
        </mxCell>
        <mxCell id="oftK6sn-_rAUm3IxDmFb-51" value="Bill Greene" style="shape=partialRectangle;html=1;whiteSpace=wrap;connectable=0;strokeColor=inherit;overflow=hidden;fillColor=none;top=0;left=0;bottom=0;right=0;pointerEvents=1;fontSize=16;comic=0;strokeWidth=2;" vertex="1" parent="oftK6sn-_rAUm3IxDmFb-50">
          <mxGeometry width="124" height="30" as="geometry">
            <mxRectangle width="124" height="30" as="alternateBounds" />
          </mxGeometry>
        </mxCell>
        <mxCell id="oftK6sn-_rAUm3IxDmFb-53" value="" style="shape=tableRow;horizontal=0;startSize=0;swimlaneHead=0;swimlaneBody=0;strokeColor=inherit;top=0;left=0;bottom=0;right=0;collapsible=0;dropTarget=0;fillColor=none;points=[[0,0.5],[1,0.5]];portConstraint=eastwest;fontSize=16;comic=0;strokeWidth=2;" vertex="1" parent="oftK6sn-_rAUm3IxDmFb-49">
          <mxGeometry y="30" width="124" height="30" as="geometry" />
        </mxCell>
        <mxCell id="oftK6sn-_rAUm3IxDmFb-54" value="Jane Doe" style="shape=partialRectangle;html=1;whiteSpace=wrap;connectable=0;strokeColor=inherit;overflow=hidden;fillColor=none;top=0;left=0;bottom=0;right=0;pointerEvents=1;fontSize=16;comic=0;strokeWidth=2;" vertex="1" parent="oftK6sn-_rAUm3IxDmFb-53">
          <mxGeometry width="124" height="30" as="geometry">
            <mxRectangle width="124" height="30" as="alternateBounds" />
          </mxGeometry>
        </mxCell>
        <mxCell id="oftK6sn-_rAUm3IxDmFb-56" value="" style="shape=tableRow;horizontal=0;startSize=0;swimlaneHead=0;swimlaneBody=0;strokeColor=inherit;top=0;left=0;bottom=0;right=0;collapsible=0;dropTarget=0;fillColor=none;points=[[0,0.5],[1,0.5]];portConstraint=eastwest;fontSize=16;comic=0;strokeWidth=2;" vertex="1" parent="oftK6sn-_rAUm3IxDmFb-49">
          <mxGeometry y="60" width="124" height="30" as="geometry" />
        </mxCell>
        <mxCell id="oftK6sn-_rAUm3IxDmFb-57" value="Tyler Smith" style="shape=partialRectangle;html=1;whiteSpace=wrap;connectable=0;strokeColor=inherit;overflow=hidden;fillColor=none;top=0;left=0;bottom=0;right=0;pointerEvents=1;fontSize=16;comic=0;strokeWidth=2;" vertex="1" parent="oftK6sn-_rAUm3IxDmFb-56">
          <mxGeometry width="124" height="30" as="geometry">
            <mxRectangle width="124" height="30" as="alternateBounds" />
          </mxGeometry>
        </mxCell>
        <mxCell id="oftK6sn-_rAUm3IxDmFb-68" value="" style="verticalLabelPosition=bottom;verticalAlign=top;html=1;shadow=0;dashed=0;strokeWidth=1;shape=mxgraph.android.phone2;strokeColor=#c0c0c0;fontSize=12;" vertex="1" parent="1">
          <mxGeometry x="1490" y="-20" width="260" height="480" as="geometry" />
        </mxCell>
        <mxCell id="oftK6sn-_rAUm3IxDmFb-69" value="Assignment Title" style="strokeWidth=1;shadow=0;dashed=0;align=center;html=1;shape=mxgraph.mockup.text.textBox;fontColor=#666666;align=left;fontSize=17;spacingLeft=4;spacingTop=-3;strokeColor=#666666;mainText=;comic=0;fillColor=none;gradientColor=none;" vertex="1" parent="1">
          <mxGeometry x="1505" y="40" width="150" height="30" as="geometry" />
        </mxCell>
        <mxCell id="oftK6sn-_rAUm3IxDmFb-70" value="9:20 AM" style="strokeWidth=1;shadow=0;dashed=0;align=center;html=1;shape=mxgraph.mockup.text.textBox;fontColor=#666666;align=left;fontSize=17;spacingLeft=4;spacingTop=-3;strokeColor=#666666;mainText=;comic=0;fillColor=none;gradientColor=none;" vertex="1" parent="1">
          <mxGeometry x="1505" y="90" width="150" height="30" as="geometry" />
        </mxCell>
        <mxCell id="oftK6sn-_rAUm3IxDmFb-71" value="10:40 PM" style="strokeWidth=1;shadow=0;dashed=0;align=center;html=1;shape=mxgraph.mockup.text.textBox;fontColor=#666666;align=left;fontSize=17;spacingLeft=4;spacingTop=-3;strokeColor=#666666;mainText=;comic=0;fillColor=none;gradientColor=none;" vertex="1" parent="1">
          <mxGeometry x="1505" y="140" width="150" height="30" as="geometry" />
        </mxCell>
        <mxCell id="oftK6sn-_rAUm3IxDmFb-72" value="Description" style="strokeWidth=1;shadow=0;dashed=0;align=center;html=1;shape=mxgraph.mockup.text.textBox;fontColor=#666666;align=left;fontSize=17;spacingLeft=4;spacingTop=-3;strokeColor=#666666;mainText=;comic=0;fillColor=none;gradientColor=none;" vertex="1" parent="1">
          <mxGeometry x="1505" y="190" width="180" height="60" as="geometry" />
        </mxCell>
        <mxCell id="oftK6sn-_rAUm3IxDmFb-74" value="ASSIGNED TO&lt;br&gt;- &lt;font color=&quot;#00cc00&quot;&gt;Bill&lt;/font&gt;&lt;br&gt;" style="strokeWidth=1;shadow=0;dashed=0;align=center;html=1;shape=mxgraph.mockup.text.bulletedList;textColor=#666666;mainText=,,,,;textSize=17;bulletStyle=none;strokeColor=none;fillColor=none;align=left;verticalAlign=top;fontSize=17;fontColor=#666666;comic=0;" vertex="1" parent="1">
          <mxGeometry x="1535" y="260" width="150" height="50" as="geometry" />
        </mxCell>
        <mxCell id="oftK6sn-_rAUm3IxDmFb-75" value="Create" style="strokeWidth=1;shadow=0;dashed=0;align=center;html=1;shape=mxgraph.mockup.buttons.button;strokeColor=#666666;fontColor=#ffffff;mainText=;buttonStyle=round;fontSize=17;fontStyle=1;fillColor=#008cff;whiteSpace=wrap;comic=0;" vertex="1" parent="1">
          <mxGeometry x="1540" y="330" width="115" height="30" as="geometry" />
        </mxCell>
        <mxCell id="Ie2oD-ZrXoTGrJoZ_4HK-1" value="Bill&#39;s Schedule" style="text;strokeColor=none;fillColor=none;html=1;fontSize=12;fontStyle=1;verticalAlign=middle;align=center;" vertex="1" parent="1">
          <mxGeometry x="1130" y="10" width="100" height="40" as="geometry" />
        </mxCell>
        <mxCell id="Ie2oD-ZrXoTGrJoZ_4HK-2" value="" style="verticalLabelPosition=bottom;shadow=0;dashed=0;align=center;html=1;verticalAlign=top;strokeWidth=1;shape=mxgraph.mockup.navigation.scrollBar;strokeColor=#999999;barPos=20;fillColor2=#99ddff;strokeColor2=none;direction=north;fontSize=12;" vertex="1" parent="1">
          <mxGeometry x="1255" y="40" width="20" height="230" as="geometry" />
        </mxCell>
        <mxCell id="Ie2oD-ZrXoTGrJoZ_4HK-3" value="9:00 AM" style="text;html=1;strokeColor=none;fillColor=none;align=center;verticalAlign=middle;whiteSpace=wrap;rounded=0;fontSize=12;" vertex="1" parent="1">
          <mxGeometry x="1085" y="40" width="60" height="30" as="geometry" />
        </mxCell>
        <mxCell id="Ie2oD-ZrXoTGrJoZ_4HK-4" value="10:00:AM" style="text;html=1;strokeColor=none;fillColor=none;align=center;verticalAlign=middle;whiteSpace=wrap;rounded=0;fontSize=12;" vertex="1" parent="1">
          <mxGeometry x="1085" y="70" width="60" height="30" as="geometry" />
        </mxCell>
        <mxCell id="Ie2oD-ZrXoTGrJoZ_4HK-5" value="11:00 AM" style="text;html=1;strokeColor=none;fillColor=none;align=center;verticalAlign=middle;whiteSpace=wrap;rounded=0;fontSize=12;" vertex="1" parent="1">
          <mxGeometry x="1085" y="100" width="60" height="30" as="geometry" />
        </mxCell>
        <mxCell id="Ie2oD-ZrXoTGrJoZ_4HK-6" value="12:00 PM" style="text;html=1;strokeColor=none;fillColor=none;align=center;verticalAlign=middle;whiteSpace=wrap;rounded=0;fontSize=12;" vertex="1" parent="1">
          <mxGeometry x="1085" y="130" width="60" height="30" as="geometry" />
        </mxCell>
        <mxCell id="Ie2oD-ZrXoTGrJoZ_4HK-7" value="1:00 PM" style="text;html=1;strokeColor=none;fillColor=none;align=center;verticalAlign=middle;whiteSpace=wrap;rounded=0;fontSize=12;" vertex="1" parent="1">
          <mxGeometry x="1085" y="160" width="60" height="30" as="geometry" />
        </mxCell>
        <mxCell id="Ie2oD-ZrXoTGrJoZ_4HK-8" value="2:00 PM" style="text;html=1;strokeColor=none;fillColor=none;align=center;verticalAlign=middle;whiteSpace=wrap;rounded=0;fontSize=12;" vertex="1" parent="1">
          <mxGeometry x="1085" y="190" width="60" height="30" as="geometry" />
        </mxCell>
        <mxCell id="Ie2oD-ZrXoTGrJoZ_4HK-9" value="3:00 PM" style="text;html=1;strokeColor=none;fillColor=none;align=center;verticalAlign=middle;whiteSpace=wrap;rounded=0;fontSize=12;" vertex="1" parent="1">
          <mxGeometry x="1085" y="220" width="60" height="30" as="geometry" />
        </mxCell>
        <mxCell id="Ie2oD-ZrXoTGrJoZ_4HK-10" value="" style="shape=process;whiteSpace=wrap;html=1;backgroundOutline=1;fontSize=12;" vertex="1" parent="1">
          <mxGeometry x="1145" y="50" width="110" height="40" as="geometry" />
        </mxCell>
        <mxCell id="Ie2oD-ZrXoTGrJoZ_4HK-11" value="Breakfast Shift" style="text;html=1;strokeColor=none;fillColor=none;align=center;verticalAlign=middle;whiteSpace=wrap;rounded=0;fontSize=12;" vertex="1" parent="1">
          <mxGeometry x="1170" y="55" width="60" height="30" as="geometry" />
        </mxCell>
        <mxCell id="Ie2oD-ZrXoTGrJoZ_4HK-12" value="" style="shape=process;whiteSpace=wrap;html=1;backgroundOutline=1;fontSize=12;" vertex="1" parent="1">
          <mxGeometry x="1145" y="110" width="110" height="110" as="geometry" />
        </mxCell>
        <mxCell id="Ie2oD-ZrXoTGrJoZ_4HK-13" value="&lt;div style=&quot;text-align: center;&quot;&gt;&lt;span style=&quot;background-color: initial;&quot;&gt;Ski lift&amp;nbsp;&lt;br&gt;Assistance&lt;/span&gt;&lt;/div&gt;" style="text;whiteSpace=wrap;html=1;fontSize=12;" vertex="1" parent="1">
          <mxGeometry x="1160" y="125" width="80" height="40" as="geometry" />
        </mxCell>
        <mxCell id="Ie2oD-ZrXoTGrJoZ_4HK-14" value="" style="verticalLabelPosition=bottom;verticalAlign=top;html=1;shadow=0;dashed=0;strokeWidth=1;shape=mxgraph.android.phone2;strokeColor=#c0c0c0;fontSize=12;" vertex="1" parent="1">
          <mxGeometry x="1075" y="-20" width="210" height="450" as="geometry" />
        </mxCell>
        <mxCell id="Ie2oD-ZrXoTGrJoZ_4HK-15" value="Assign Task" style="strokeWidth=1;shadow=0;dashed=0;align=center;html=1;shape=mxgraph.mockup.buttons.button;strokeColor=#666666;fontColor=#ffffff;mainText=;buttonStyle=round;fontSize=17;fontStyle=1;fillColor=#008cff;whiteSpace=wrap;comic=0;" vertex="1" parent="1">
          <mxGeometry x="1105" y="300" width="150" height="50" as="geometry" />
        </mxCell>
        <mxCell id="Ie2oD-ZrXoTGrJoZ_4HK-16" value="" style="endArrow=classic;html=1;rounded=0;fontSize=16;fontColor=#000033;entryX=0.007;entryY=0.621;entryDx=0;entryDy=0;entryPerimeter=0;" edge="1" parent="1" source="Ie2oD-ZrXoTGrJoZ_4HK-15" target="oftK6sn-_rAUm3IxDmFb-68">
          <mxGeometry width="50" height="50" relative="1" as="geometry">
            <mxPoint x="890" y="400" as="sourcePoint" />
            <mxPoint x="940" y="350" as="targetPoint" />
          </mxGeometry>
        </mxCell>
        <mxCell id="Yb54dssm1dIwgAmSdB5u-1" value="" style="shape=process;whiteSpace=wrap;html=1;backgroundOutline=1;fontSize=12;" vertex="1" parent="1">
          <mxGeometry x="1285" y="-120" width="210" height="160" as="geometry" />
        </mxCell>
        <mxCell id="Yb54dssm1dIwgAmSdB5u-2" value="&lt;h1&gt;&lt;font style=&quot;font-size: 16px;&quot;&gt;Ski Lift Assistance&lt;/font&gt;&lt;/h1&gt;&lt;p&gt;&lt;b&gt;11:00 AM - 2:30 PM&lt;/b&gt;&lt;/p&gt;" style="text;html=1;strokeColor=none;fillColor=none;spacing=5;spacingTop=-20;whiteSpace=wrap;overflow=hidden;rounded=0;fontSize=12;" vertex="1" parent="1">
          <mxGeometry x="1305" y="-110" width="150" height="70" as="geometry" />
        </mxCell>
        <mxCell id="Yb54dssm1dIwgAmSdB5u-3" value="&lt;font style=&quot;font-size: 11px;&quot;&gt;Help people get on and off the ski lit located at Danger Peak.&amp;nbsp;&lt;/font&gt;" style="text;html=1;strokeColor=none;fillColor=none;align=center;verticalAlign=middle;whiteSpace=wrap;rounded=0;fontSize=15;" vertex="1" parent="1">
          <mxGeometry x="1310" y="-60" width="160" height="60" as="geometry" />
        </mxCell>
        <mxCell id="Yb54dssm1dIwgAmSdB5u-4" value="Delete" style="strokeWidth=1;shadow=0;dashed=0;align=center;html=1;shape=mxgraph.mockup.buttons.button;strokeColor=#b85450;mainText=;buttonStyle=round;fontSize=17;fontStyle=1;fillColor=#f8cecc;whiteSpace=wrap;comic=0;" vertex="1" parent="1">
          <mxGeometry x="1315" width="125" height="20" as="geometry" />
        </mxCell>
        <mxCell id="Yb54dssm1dIwgAmSdB5u-5" value="" style="endArrow=classic;html=1;rounded=0;fontSize=16;fontColor=#000033;exitX=0.75;exitY=0;exitDx=0;exitDy=0;" edge="1" parent="1" source="Ie2oD-ZrXoTGrJoZ_4HK-12" target="Yb54dssm1dIwgAmSdB5u-1">
          <mxGeometry width="50" height="50" relative="1" as="geometry">
            <mxPoint x="1100" y="130" as="sourcePoint" />
            <mxPoint x="1150" y="80" as="targetPoint" />
          </mxGeometry>
        </mxCell>
        <mxCell id="FXbku6LHUxpyQxHt3x2v-1" value="&lt;h1&gt;&lt;font style=&quot;font-size: 15px;&quot;&gt;Available Employees&lt;/font&gt;&lt;/h1&gt;" style="text;html=1;strokeColor=none;fillColor=none;spacing=5;spacingTop=-20;whiteSpace=wrap;overflow=hidden;rounded=0;fontSize=16;fontColor=#000033;" vertex="1" parent="1">
          <mxGeometry x="780" y="105" width="170" height="65" as="geometry" />
        </mxCell>
        <mxCell id="fAPRXDLk0ZkT3iY_FccS-1" value="" style="verticalLabelPosition=bottom;verticalAlign=top;html=1;shadow=0;dashed=0;strokeWidth=1;shape=mxgraph.android.phone2;strokeColor=#c0c0c0;fontSize=12;" vertex="1" parent="1">
          <mxGeometry x="1000" y="550" width="250" height="490" as="geometry" />
        </mxCell>
        <mxCell id="fAPRXDLk0ZkT3iY_FccS-2" value="" style="shape=table;startSize=0;container=1;collapsible=0;childLayout=tableLayout;fontSize=16;fixedRows=0;columnLines=1;swimlaneLine=0;comic=0;" vertex="1" parent="1">
          <mxGeometry x="1020" y="725" width="220" height="120" as="geometry" />
        </mxCell>
        <mxCell id="fAPRXDLk0ZkT3iY_FccS-3" value="" style="shape=tableRow;horizontal=0;startSize=0;swimlaneHead=0;swimlaneBody=0;strokeColor=inherit;top=0;left=0;bottom=0;right=0;collapsible=0;dropTarget=0;fillColor=none;points=[[0,0.5],[1,0.5]];portConstraint=eastwest;fontSize=16;" vertex="1" parent="fAPRXDLk0ZkT3iY_FccS-2">
          <mxGeometry width="220" height="40" as="geometry" />
        </mxCell>
        <mxCell id="fAPRXDLk0ZkT3iY_FccS-4" value="Bill" style="shape=partialRectangle;html=1;whiteSpace=wrap;connectable=0;strokeColor=inherit;overflow=hidden;fillColor=none;top=0;left=0;bottom=0;right=0;pointerEvents=1;fontSize=16;" vertex="1" parent="fAPRXDLk0ZkT3iY_FccS-3">
          <mxGeometry width="50" height="40" as="geometry">
            <mxRectangle width="50" height="40" as="alternateBounds" />
          </mxGeometry>
        </mxCell>
        <mxCell id="fAPRXDLk0ZkT3iY_FccS-5" value="some message" style="shape=partialRectangle;html=1;whiteSpace=wrap;connectable=1;strokeColor=inherit;overflow=hidden;fillColor=none;top=0;left=0;bottom=0;right=0;pointerEvents=1;fontSize=16;movable=1;resizable=1;rotatable=1;deletable=1;editable=1;locked=0;" vertex="1" parent="fAPRXDLk0ZkT3iY_FccS-3">
          <mxGeometry x="50" width="120" height="40" as="geometry">
            <mxRectangle width="120" height="40" as="alternateBounds" />
          </mxGeometry>
        </mxCell>
        <mxCell id="fAPRXDLk0ZkT3iY_FccS-6" value="5:56 PM" style="shape=partialRectangle;html=1;whiteSpace=wrap;connectable=1;strokeColor=inherit;overflow=hidden;fillColor=none;top=0;left=0;bottom=0;right=0;pointerEvents=1;fontSize=16;movable=1;resizable=1;rotatable=1;deletable=1;editable=1;locked=0;" vertex="1" parent="fAPRXDLk0ZkT3iY_FccS-3">
          <mxGeometry x="170" width="50" height="40" as="geometry">
            <mxRectangle width="50" height="40" as="alternateBounds" />
          </mxGeometry>
        </mxCell>
        <mxCell id="fAPRXDLk0ZkT3iY_FccS-7" value="" style="shape=tableRow;horizontal=0;startSize=0;swimlaneHead=0;swimlaneBody=0;strokeColor=inherit;top=0;left=0;bottom=0;right=0;collapsible=0;dropTarget=0;fillColor=none;points=[[0,0.5],[1,0.5]];portConstraint=eastwest;fontSize=16;" vertex="1" parent="fAPRXDLk0ZkT3iY_FccS-2">
          <mxGeometry y="40" width="220" height="40" as="geometry" />
        </mxCell>
        <mxCell id="fAPRXDLk0ZkT3iY_FccS-8" value="Henry" style="shape=partialRectangle;html=1;whiteSpace=wrap;connectable=0;strokeColor=inherit;overflow=hidden;fillColor=none;top=0;left=0;bottom=0;right=0;pointerEvents=1;fontSize=16;" vertex="1" parent="fAPRXDLk0ZkT3iY_FccS-7">
          <mxGeometry width="50" height="40" as="geometry">
            <mxRectangle width="50" height="40" as="alternateBounds" />
          </mxGeometry>
        </mxCell>
        <mxCell id="fAPRXDLk0ZkT3iY_FccS-9" value="some message" style="shape=partialRectangle;html=1;whiteSpace=wrap;connectable=0;strokeColor=inherit;overflow=hidden;fillColor=none;top=0;left=0;bottom=0;right=0;pointerEvents=1;fontSize=16;" vertex="1" parent="fAPRXDLk0ZkT3iY_FccS-7">
          <mxGeometry x="50" width="120" height="40" as="geometry">
            <mxRectangle width="120" height="40" as="alternateBounds" />
          </mxGeometry>
        </mxCell>
        <mxCell id="fAPRXDLk0ZkT3iY_FccS-10" value="4:15 PM" style="shape=partialRectangle;html=1;whiteSpace=wrap;connectable=0;strokeColor=inherit;overflow=hidden;fillColor=none;top=0;left=0;bottom=0;right=0;pointerEvents=1;fontSize=16;" vertex="1" parent="fAPRXDLk0ZkT3iY_FccS-7">
          <mxGeometry x="170" width="50" height="40" as="geometry">
            <mxRectangle width="50" height="40" as="alternateBounds" />
          </mxGeometry>
        </mxCell>
        <mxCell id="fAPRXDLk0ZkT3iY_FccS-11" value="" style="shape=tableRow;horizontal=0;startSize=0;swimlaneHead=0;swimlaneBody=0;strokeColor=inherit;top=0;left=0;bottom=0;right=0;collapsible=0;dropTarget=0;fillColor=none;points=[[0,0.5],[1,0.5]];portConstraint=eastwest;fontSize=16;" vertex="1" parent="fAPRXDLk0ZkT3iY_FccS-2">
          <mxGeometry y="80" width="220" height="40" as="geometry" />
        </mxCell>
        <mxCell id="fAPRXDLk0ZkT3iY_FccS-12" value="Jane" style="shape=partialRectangle;html=1;whiteSpace=wrap;connectable=0;strokeColor=inherit;overflow=hidden;fillColor=none;top=0;left=0;bottom=0;right=0;pointerEvents=1;fontSize=16;" vertex="1" parent="fAPRXDLk0ZkT3iY_FccS-11">
          <mxGeometry width="50" height="40" as="geometry">
            <mxRectangle width="50" height="40" as="alternateBounds" />
          </mxGeometry>
        </mxCell>
        <mxCell id="fAPRXDLk0ZkT3iY_FccS-13" value="some message" style="shape=partialRectangle;html=1;whiteSpace=wrap;connectable=0;strokeColor=inherit;overflow=hidden;fillColor=none;top=0;left=0;bottom=0;right=0;pointerEvents=1;fontSize=16;" vertex="1" parent="fAPRXDLk0ZkT3iY_FccS-11">
          <mxGeometry x="50" width="120" height="40" as="geometry">
            <mxRectangle width="120" height="40" as="alternateBounds" />
          </mxGeometry>
        </mxCell>
        <mxCell id="fAPRXDLk0ZkT3iY_FccS-14" value="10:21 AM" style="shape=partialRectangle;html=1;whiteSpace=wrap;connectable=0;strokeColor=inherit;overflow=hidden;fillColor=none;top=0;left=0;bottom=0;right=0;pointerEvents=1;fontSize=16;" vertex="1" parent="fAPRXDLk0ZkT3iY_FccS-11">
          <mxGeometry x="170" width="50" height="40" as="geometry">
            <mxRectangle width="50" height="40" as="alternateBounds" />
          </mxGeometry>
        </mxCell>
        <mxCell id="fAPRXDLk0ZkT3iY_FccS-15" value="" style="shape=image;html=1;verticalAlign=top;verticalLabelPosition=bottom;labelBackgroundColor=#ffffff;imageAspect=0;aspect=fixed;image=https://cdn4.iconfinder.com/data/icons/computer-and-web-2/500/Draw-128.png;comic=0;fontSize=11;" vertex="1" parent="1">
          <mxGeometry x="1190" y="930" width="50" height="50" as="geometry" />
        </mxCell>
        <mxCell id="fAPRXDLk0ZkT3iY_FccS-16" value="Search" style="strokeWidth=1;shadow=0;dashed=0;align=center;html=1;shape=mxgraph.mockup.forms.searchBox;strokeColor=#999999;mainText=;strokeColor2=#008cff;fontColor=#666666;fontSize=17;align=left;spacingLeft=3;comic=0;" vertex="1" parent="1">
          <mxGeometry x="1020" y="940" width="150" height="30" as="geometry" />
        </mxCell>
        <mxCell id="fAPRXDLk0ZkT3iY_FccS-17" value="" style="shape=table;startSize=0;container=1;collapsible=0;childLayout=tableLayout;fontSize=16;fixedRows=0;columnLines=1;swimlaneLine=0;comic=0;fillColor=none;strokeColor=#6c8ebf;strokeWidth=2;swimlaneFillColor=default;" vertex="1" parent="1">
          <mxGeometry x="1020" y="645" width="220" height="80" as="geometry" />
        </mxCell>
        <mxCell id="fAPRXDLk0ZkT3iY_FccS-18" value="" style="shape=tableRow;horizontal=0;startSize=0;swimlaneHead=0;swimlaneBody=0;strokeColor=#6c8ebf;top=0;left=0;bottom=0;right=0;collapsible=0;dropTarget=0;fillColor=none;points=[[0,0.5],[1,0.5]];portConstraint=eastwest;fontSize=16;strokeWidth=2;swimlaneFillColor=default;" vertex="1" parent="fAPRXDLk0ZkT3iY_FccS-17">
          <mxGeometry width="220" height="40" as="geometry" />
        </mxCell>
        <mxCell id="fAPRXDLk0ZkT3iY_FccS-19" value="Bill" style="shape=partialRectangle;html=1;whiteSpace=wrap;connectable=0;strokeColor=#6c8ebf;overflow=hidden;fillColor=none;top=0;left=0;bottom=0;right=0;pointerEvents=1;fontSize=16;strokeWidth=2;swimlaneFillColor=default;" vertex="1" parent="fAPRXDLk0ZkT3iY_FccS-18">
          <mxGeometry width="50" height="40" as="geometry">
            <mxRectangle width="50" height="40" as="alternateBounds" />
          </mxGeometry>
        </mxCell>
        <mxCell id="fAPRXDLk0ZkT3iY_FccS-20" value="some message" style="shape=partialRectangle;html=1;whiteSpace=wrap;connectable=1;strokeColor=#6c8ebf;overflow=hidden;fillColor=none;top=0;left=0;bottom=0;right=0;pointerEvents=1;fontSize=16;movable=1;resizable=1;rotatable=1;deletable=1;editable=1;locked=0;strokeWidth=2;swimlaneFillColor=default;" vertex="1" parent="fAPRXDLk0ZkT3iY_FccS-18">
          <mxGeometry x="50" width="120" height="40" as="geometry">
            <mxRectangle width="120" height="40" as="alternateBounds" />
          </mxGeometry>
        </mxCell>
        <mxCell id="fAPRXDLk0ZkT3iY_FccS-21" value="7:21 PM" style="shape=partialRectangle;html=1;whiteSpace=wrap;connectable=1;strokeColor=#6c8ebf;overflow=hidden;fillColor=none;top=0;left=0;bottom=0;right=0;pointerEvents=1;fontSize=16;movable=1;resizable=1;rotatable=1;deletable=1;editable=1;locked=0;strokeWidth=2;swimlaneFillColor=default;" vertex="1" parent="fAPRXDLk0ZkT3iY_FccS-18">
          <mxGeometry x="170" width="50" height="40" as="geometry">
            <mxRectangle width="50" height="40" as="alternateBounds" />
          </mxGeometry>
        </mxCell>
        <mxCell id="fAPRXDLk0ZkT3iY_FccS-22" value="" style="shape=tableRow;horizontal=0;startSize=0;swimlaneHead=0;swimlaneBody=0;strokeColor=#6c8ebf;top=0;left=0;bottom=0;right=0;collapsible=0;dropTarget=0;fillColor=none;points=[[0,0.5],[1,0.5]];portConstraint=eastwest;fontSize=16;strokeWidth=2;swimlaneFillColor=default;" vertex="1" parent="fAPRXDLk0ZkT3iY_FccS-17">
          <mxGeometry y="40" width="220" height="40" as="geometry" />
        </mxCell>
        <mxCell id="fAPRXDLk0ZkT3iY_FccS-23" value="Henry" style="shape=partialRectangle;html=1;whiteSpace=wrap;connectable=0;strokeColor=#6c8ebf;overflow=hidden;fillColor=none;top=0;left=0;bottom=0;right=0;pointerEvents=1;fontSize=16;strokeWidth=2;swimlaneFillColor=default;" vertex="1" parent="fAPRXDLk0ZkT3iY_FccS-22">
          <mxGeometry width="50" height="40" as="geometry">
            <mxRectangle width="50" height="40" as="alternateBounds" />
          </mxGeometry>
        </mxCell>
        <mxCell id="fAPRXDLk0ZkT3iY_FccS-24" value="some message" style="shape=partialRectangle;html=1;whiteSpace=wrap;connectable=0;strokeColor=#6c8ebf;overflow=hidden;fillColor=none;top=0;left=0;bottom=0;right=0;pointerEvents=1;fontSize=16;strokeWidth=2;swimlaneFillColor=default;" vertex="1" parent="fAPRXDLk0ZkT3iY_FccS-22">
          <mxGeometry x="50" width="120" height="40" as="geometry">
            <mxRectangle width="120" height="40" as="alternateBounds" />
          </mxGeometry>
        </mxCell>
        <mxCell id="fAPRXDLk0ZkT3iY_FccS-25" value="6:11 PM" style="shape=partialRectangle;html=1;whiteSpace=wrap;connectable=0;strokeColor=#6c8ebf;overflow=hidden;fillColor=none;top=0;left=0;bottom=0;right=0;pointerEvents=1;fontSize=16;strokeWidth=2;swimlaneFillColor=default;" vertex="1" parent="fAPRXDLk0ZkT3iY_FccS-22">
          <mxGeometry x="170" width="50" height="40" as="geometry">
            <mxRectangle width="50" height="40" as="alternateBounds" />
          </mxGeometry>
        </mxCell>
        <mxCell id="fAPRXDLk0ZkT3iY_FccS-26" value="Recieved" style="strokeWidth=1;shadow=0;dashed=0;align=center;html=1;shape=mxgraph.mockup.buttons.onOffButton;gradientColor=none;strokeColor=#999999;buttonState=on;fillColor2=#008cff;fontColor=#ffffff;fontSize=17;mainText=;spacingRight=40;fontStyle=1;comic=0;" vertex="1" parent="1">
          <mxGeometry x="1020" y="880" width="150" height="20" as="geometry" />
        </mxCell>
        <mxCell id="fAPRXDLk0ZkT3iY_FccS-27" value="" style="dashed=0;aspect=fixed;verticalLabelPosition=bottom;verticalAlign=top;align=center;shape=mxgraph.gmdl.reply;strokeColor=none;fillColor=#737373;shadow=0;sketch=0;comic=0;strokeWidth=2;fontSize=11;" vertex="1" parent="1">
          <mxGeometry x="1175" y="671" width="10" height="9" as="geometry" />
        </mxCell>
        <mxCell id="fAPRXDLk0ZkT3iY_FccS-28" value="" style="dashed=0;aspect=fixed;verticalLabelPosition=bottom;verticalAlign=top;align=center;shape=mxgraph.gmdl.reply;strokeColor=none;fillColor=#737373;shadow=0;sketch=0;comic=0;strokeWidth=2;fontSize=11;" vertex="1" parent="1">
          <mxGeometry x="1175" y="711" width="10" height="9" as="geometry" />
        </mxCell>
        <mxCell id="fAPRXDLk0ZkT3iY_FccS-29" value="" style="dashed=0;aspect=fixed;verticalLabelPosition=bottom;verticalAlign=top;align=center;shape=mxgraph.gmdl.reply;strokeColor=none;fillColor=#737373;shadow=0;sketch=0;comic=0;strokeWidth=2;fontSize=11;" vertex="1" parent="1">
          <mxGeometry x="1175" y="756" width="10" height="9" as="geometry" />
        </mxCell>
        <mxCell id="fAPRXDLk0ZkT3iY_FccS-30" value="" style="dashed=0;aspect=fixed;verticalLabelPosition=bottom;verticalAlign=top;align=center;shape=mxgraph.gmdl.reply;strokeColor=none;fillColor=#737373;shadow=0;sketch=0;comic=0;strokeWidth=2;fontSize=11;" vertex="1" parent="1">
          <mxGeometry x="1175" y="795" width="10" height="9" as="geometry" />
        </mxCell>
        <mxCell id="fAPRXDLk0ZkT3iY_FccS-31" value="" style="dashed=0;aspect=fixed;verticalLabelPosition=bottom;verticalAlign=top;align=center;shape=mxgraph.gmdl.reply;strokeColor=none;fillColor=#737373;shadow=0;sketch=0;comic=0;strokeWidth=2;fontSize=11;" vertex="1" parent="1">
          <mxGeometry x="1175" y="835" width="10" height="9" as="geometry" />
        </mxCell>
        <mxCell id="fAPRXDLk0ZkT3iY_FccS-32" value="" style="verticalLabelPosition=bottom;verticalAlign=top;html=1;shadow=0;dashed=0;strokeWidth=1;shape=mxgraph.android.phone2;strokeColor=#c0c0c0;fontSize=12;" vertex="1" parent="1">
          <mxGeometry x="1350" y="590" width="210" height="450" as="geometry" />
        </mxCell>
        <mxCell id="fAPRXDLk0ZkT3iY_FccS-33" value="" style="endArrow=classic;html=1;rounded=0;fontSize=11;exitX=1;exitY=0.5;exitDx=0;exitDy=0;entryX=-0.004;entryY=0.741;entryDx=0;entryDy=0;entryPerimeter=0;" edge="1" parent="1" source="fAPRXDLk0ZkT3iY_FccS-15" target="fAPRXDLk0ZkT3iY_FccS-32">
          <mxGeometry width="50" height="50" relative="1" as="geometry">
            <mxPoint x="1280" y="960" as="sourcePoint" />
            <mxPoint x="1330" y="910" as="targetPoint" />
          </mxGeometry>
        </mxCell>
        <mxCell id="fAPRXDLk0ZkT3iY_FccS-34" value="" style="verticalLabelPosition=bottom;verticalAlign=top;html=1;shadow=0;dashed=0;strokeWidth=1;shape=mxgraph.android.keyboard;sketch=0;comic=0;strokeColor=#000033;fontSize=11;fillColor=none;gradientColor=none;" vertex="1" parent="1">
          <mxGeometry x="1362.5" y="895" width="185" height="100" as="geometry" />
        </mxCell>
        <mxCell id="fAPRXDLk0ZkT3iY_FccS-35" value="Your message here" style="strokeWidth=1;shadow=0;dashed=0;align=center;html=1;shape=mxgraph.mockup.text.textBox;fontColor=#666666;align=left;fontSize=17;spacingLeft=4;spacingTop=-3;strokeColor=#666666;mainText=;comic=0;fillColor=none;gradientColor=none;" vertex="1" parent="1">
          <mxGeometry x="1362.5" y="665" width="187.5" height="170" as="geometry" />
        </mxCell>
        <mxCell id="fAPRXDLk0ZkT3iY_FccS-36" value="recipient" style="strokeWidth=1;shadow=0;dashed=0;align=center;html=1;shape=mxgraph.mockup.forms.comboBox;strokeColor=#999999;fillColor=#ddeeff;align=left;fillColor2=#aaddff;mainText=;fontColor=#666666;fontSize=17;spacingLeft=3;comic=0;" vertex="1" parent="1">
          <mxGeometry x="1381.25" y="850" width="148.75" height="30" as="geometry" />
        </mxCell>
        <mxCell id="1kciWgEtemtRSGNLGntu-1" value="" style="verticalLabelPosition=bottom;verticalAlign=top;html=1;shadow=0;dashed=0;strokeWidth=1;shape=mxgraph.android.phone2;strokeColor=#c0c0c0;fontSize=12;" vertex="1" parent="1">
          <mxGeometry x="340" y="80" width="210" height="450" as="geometry" />
        </mxCell>
        <mxCell id="1kciWgEtemtRSGNLGntu-2" value="" style="verticalLabelPosition=bottom;verticalAlign=top;html=1;shadow=0;dashed=0;strokeWidth=1;shape=mxgraph.android.contact_badge_focused;sketch=0;fontSize=12;" vertex="1" parent="1">
          <mxGeometry x="360" y="140" width="40" height="40" as="geometry" />
        </mxCell>
        <mxCell id="1kciWgEtemtRSGNLGntu-3" value="Welcome, John Doe!" style="text;html=1;strokeColor=none;fillColor=none;align=center;verticalAlign=middle;whiteSpace=wrap;rounded=0;fontSize=12;" vertex="1" parent="1">
          <mxGeometry x="415" y="145" width="115" height="30" as="geometry" />
        </mxCell>
        <mxCell id="1kciWgEtemtRSGNLGntu-17" value="" style="shape=image;html=1;verticalAlign=top;verticalLabelPosition=bottom;labelBackgroundColor=#ffffff;imageAspect=0;aspect=fixed;image=https://cdn1.iconfinder.com/data/icons/ui-essential-17/32/UI_Essential_Outline_1_essential-app-ui-chat-comment-messages-talk-128.png;fontSize=11;" vertex="1" parent="1">
          <mxGeometry x="425" y="300" width="40" height="40" as="geometry" />
        </mxCell>
        <mxCell id="1kciWgEtemtRSGNLGntu-18" value="" style="sketch=0;aspect=fixed;pointerEvents=1;shadow=0;dashed=0;html=1;strokeColor=none;labelPosition=center;verticalLabelPosition=bottom;verticalAlign=top;align=center;fillColor=#00188D;shape=mxgraph.mscae.enterprise.calendar;comic=0;strokeWidth=2;fontSize=17;fontColor=#00CC00;" vertex="1" parent="1">
          <mxGeometry x="420" y="209" width="50" height="41" as="geometry" />
        </mxCell>
        <mxCell id="1kciWgEtemtRSGNLGntu-20" value="" style="shape=image;html=1;verticalAlign=top;verticalLabelPosition=bottom;labelBackgroundColor=#ffffff;imageAspect=0;aspect=fixed;image=https://cdn0.iconfinder.com/data/icons/security-double-color-red-and-black-vol-1/52/error__problem__alert__warning-128.png;comic=0;strokeColor=#000033;strokeWidth=2;fontSize=15;fontColor=#000033;fillColor=none;gradientColor=none;" vertex="1" parent="1">
          <mxGeometry x="410" y="370" width="70" height="70" as="geometry" />
        </mxCell>
        <mxCell id="sX7nOIie6voeVAmc2vJT-1" value="" style="verticalLabelPosition=bottom;verticalAlign=top;html=1;shadow=0;dashed=0;strokeWidth=1;shape=mxgraph.android.phone2;strokeColor=#c0c0c0;fontSize=12;" vertex="1" parent="1">
          <mxGeometry x="340" y="600" width="210" height="450" as="geometry" />
        </mxCell>
        <mxCell id="sX7nOIie6voeVAmc2vJT-2" value="" style="endArrow=classic;html=1;rounded=0;fontSize=15;fontColor=#000033;exitX=0.5;exitY=1;exitDx=0;exitDy=0;entryX=0.496;entryY=0.007;entryDx=0;entryDy=0;entryPerimeter=0;" edge="1" parent="1" source="1kciWgEtemtRSGNLGntu-20" target="sX7nOIie6voeVAmc2vJT-1">
          <mxGeometry width="50" height="50" relative="1" as="geometry">
            <mxPoint x="810" y="880" as="sourcePoint" />
            <mxPoint x="860" y="830" as="targetPoint" />
          </mxGeometry>
        </mxCell>
        <mxCell id="VTSIka6Tq6mD0PUPtEBo-1" value="" style="shape=table;startSize=0;container=1;collapsible=0;childLayout=tableLayout;fontSize=16;comic=0;strokeColor=#000033;strokeWidth=2;fontColor=#000033;fillColor=none;gradientColor=none;" vertex="1" parent="1">
          <mxGeometry x="367.5" y="741" width="155" height="189" as="geometry" />
        </mxCell>
        <mxCell id="VTSIka6Tq6mD0PUPtEBo-2" value="" style="shape=tableRow;horizontal=0;startSize=0;swimlaneHead=0;swimlaneBody=0;strokeColor=inherit;top=0;left=0;bottom=0;right=0;collapsible=0;dropTarget=0;fillColor=none;points=[[0,0.5],[1,0.5]];portConstraint=eastwest;fontSize=16;comic=0;strokeWidth=2;fontColor=#000033;" vertex="1" parent="VTSIka6Tq6mD0PUPtEBo-1">
          <mxGeometry width="155" height="63" as="geometry" />
        </mxCell>
        <mxCell id="VTSIka6Tq6mD0PUPtEBo-4" value="" style="shape=partialRectangle;html=1;whiteSpace=wrap;connectable=0;strokeColor=inherit;overflow=hidden;fillColor=none;top=0;left=0;bottom=0;right=0;pointerEvents=1;fontSize=16;comic=0;strokeWidth=2;fontColor=#000033;" vertex="1" parent="VTSIka6Tq6mD0PUPtEBo-2">
          <mxGeometry width="155" height="63" as="geometry">
            <mxRectangle width="155" height="63" as="alternateBounds" />
          </mxGeometry>
        </mxCell>
        <mxCell id="VTSIka6Tq6mD0PUPtEBo-6" value="" style="shape=tableRow;horizontal=0;startSize=0;swimlaneHead=0;swimlaneBody=0;strokeColor=inherit;top=0;left=0;bottom=0;right=0;collapsible=0;dropTarget=0;fillColor=none;points=[[0,0.5],[1,0.5]];portConstraint=eastwest;fontSize=16;comic=0;strokeWidth=2;fontColor=#000033;" vertex="1" parent="VTSIka6Tq6mD0PUPtEBo-1">
          <mxGeometry y="63" width="155" height="63" as="geometry" />
        </mxCell>
        <mxCell id="VTSIka6Tq6mD0PUPtEBo-8" value="" style="shape=partialRectangle;html=1;whiteSpace=wrap;connectable=0;strokeColor=inherit;overflow=hidden;fillColor=none;top=0;left=0;bottom=0;right=0;pointerEvents=1;fontSize=16;comic=0;strokeWidth=2;fontColor=#000033;" vertex="1" parent="VTSIka6Tq6mD0PUPtEBo-6">
          <mxGeometry width="155" height="63" as="geometry">
            <mxRectangle width="155" height="63" as="alternateBounds" />
          </mxGeometry>
        </mxCell>
        <mxCell id="VTSIka6Tq6mD0PUPtEBo-10" value="" style="shape=tableRow;horizontal=0;startSize=0;swimlaneHead=0;swimlaneBody=0;strokeColor=inherit;top=0;left=0;bottom=0;right=0;collapsible=0;dropTarget=0;fillColor=none;points=[[0,0.5],[1,0.5]];portConstraint=eastwest;fontSize=16;comic=0;strokeWidth=2;fontColor=#000033;" vertex="1" parent="VTSIka6Tq6mD0PUPtEBo-1">
          <mxGeometry y="126" width="155" height="63" as="geometry" />
        </mxCell>
        <mxCell id="VTSIka6Tq6mD0PUPtEBo-12" value="" style="shape=partialRectangle;html=1;whiteSpace=wrap;connectable=0;strokeColor=inherit;overflow=hidden;fillColor=none;top=0;left=0;bottom=0;right=0;pointerEvents=1;fontSize=16;comic=0;strokeWidth=2;fontColor=#000033;" vertex="1" parent="VTSIka6Tq6mD0PUPtEBo-10">
          <mxGeometry width="155" height="63" as="geometry">
            <mxRectangle width="155" height="63" as="alternateBounds" />
          </mxGeometry>
        </mxCell>
        <mxCell id="VTSIka6Tq6mD0PUPtEBo-14" value="&lt;h1&gt;&lt;span style=&quot;font-size: 15px;&quot;&gt;Problems&lt;/span&gt;&lt;/h1&gt;" style="text;html=1;strokeColor=none;fillColor=none;spacing=5;spacingTop=-20;whiteSpace=wrap;overflow=hidden;rounded=0;fontSize=16;fontColor=#000033;" vertex="1" parent="1">
          <mxGeometry x="367.5" y="645" width="170" height="65" as="geometry" />
        </mxCell>
        <mxCell id="VTSIka6Tq6mD0PUPtEBo-15" value="Ice Cream Machine Broke" style="text;html=1;strokeColor=none;fillColor=none;align=center;verticalAlign=middle;whiteSpace=wrap;rounded=0;fontSize=15;fontColor=#000033;" vertex="1" parent="1">
          <mxGeometry x="385" y="756" width="120" height="30" as="geometry" />
        </mxCell>
        <mxCell id="VTSIka6Tq6mD0PUPtEBo-16" value="AC Broken" style="text;html=1;strokeColor=none;fillColor=none;align=center;verticalAlign=middle;whiteSpace=wrap;rounded=0;fontSize=15;fontColor=#000033;" vertex="1" parent="1">
          <mxGeometry x="385" y="820" width="120" height="30" as="geometry" />
        </mxCell>
        <mxCell id="VTSIka6Tq6mD0PUPtEBo-17" value="Broken Toilet" style="text;html=1;strokeColor=none;fillColor=none;align=center;verticalAlign=middle;whiteSpace=wrap;rounded=0;fontSize=15;fontColor=#000033;" vertex="1" parent="1">
          <mxGeometry x="380" y="880" width="120" height="30" as="geometry" />
        </mxCell>
        <mxCell id="VTSIka6Tq6mD0PUPtEBo-18" value="" style="endArrow=classic;html=1;rounded=0;fontSize=15;fontColor=#000033;exitX=0;exitY=0.5;exitDx=0;exitDy=0;" edge="1" parent="1" source="VTSIka6Tq6mD0PUPtEBo-2">
          <mxGeometry width="50" height="50" relative="1" as="geometry">
            <mxPoint x="680" y="810" as="sourcePoint" />
            <mxPoint x="250" y="771.1494252873563" as="targetPoint" />
          </mxGeometry>
        </mxCell>
        <mxCell id="VTSIka6Tq6mD0PUPtEBo-25" value="" style="shape=table;startSize=0;container=1;collapsible=0;childLayout=tableLayout;fontSize=16;comic=0;strokeColor=#000033;strokeWidth=2;fontColor=#000033;fillColor=none;gradientColor=none;" vertex="1" parent="1">
          <mxGeometry x="-10" y="700" width="290" height="199" as="geometry" />
        </mxCell>
        <mxCell id="VTSIka6Tq6mD0PUPtEBo-26" value="" style="shape=tableRow;horizontal=0;startSize=0;swimlaneHead=0;swimlaneBody=0;strokeColor=inherit;top=0;left=0;bottom=0;right=0;collapsible=0;dropTarget=0;fillColor=none;points=[[0,0.5],[1,0.5]];portConstraint=eastwest;fontSize=16;comic=0;strokeWidth=2;fontColor=#000033;" vertex="1" parent="VTSIka6Tq6mD0PUPtEBo-25">
          <mxGeometry width="290" height="70" as="geometry" />
        </mxCell>
        <mxCell id="VTSIka6Tq6mD0PUPtEBo-27" value="Ice cream machine broke" style="shape=partialRectangle;html=1;whiteSpace=wrap;connectable=0;strokeColor=inherit;overflow=hidden;fillColor=none;top=0;left=0;bottom=0;right=0;pointerEvents=1;fontSize=16;comic=0;strokeWidth=2;fontColor=#000033;" vertex="1" parent="VTSIka6Tq6mD0PUPtEBo-26">
          <mxGeometry width="290" height="70" as="geometry">
            <mxRectangle width="290" height="70" as="alternateBounds" />
          </mxGeometry>
        </mxCell>
        <mxCell id="VTSIka6Tq6mD0PUPtEBo-34" value="" style="shape=tableRow;horizontal=0;startSize=0;swimlaneHead=0;swimlaneBody=0;strokeColor=inherit;top=0;left=0;bottom=0;right=0;collapsible=0;dropTarget=0;fillColor=none;points=[[0,0.5],[1,0.5]];portConstraint=eastwest;fontSize=16;comic=0;strokeWidth=2;fontColor=#000033;" vertex="1" parent="VTSIka6Tq6mD0PUPtEBo-25">
          <mxGeometry y="70" width="290" height="129" as="geometry" />
        </mxCell>
        <mxCell id="VTSIka6Tq6mD0PUPtEBo-35" value="" style="shape=partialRectangle;html=1;whiteSpace=wrap;connectable=0;strokeColor=inherit;overflow=hidden;fillColor=none;top=0;left=0;bottom=0;right=0;pointerEvents=1;fontSize=16;comic=0;strokeWidth=2;fontColor=#000033;" vertex="1" parent="VTSIka6Tq6mD0PUPtEBo-34">
          <mxGeometry width="290" height="129" as="geometry">
            <mxRectangle width="290" height="129" as="alternateBounds" />
          </mxGeometry>
        </mxCell>
        <mxCell id="VTSIka6Tq6mD0PUPtEBo-38" value="" style="shape=image;html=1;verticalAlign=top;verticalLabelPosition=bottom;labelBackgroundColor=#ffffff;imageAspect=0;aspect=fixed;image=https://cdn1.iconfinder.com/data/icons/material-core/18/drive-image-128.png;comic=0;strokeColor=#000033;strokeWidth=2;fontSize=15;fontColor=#000033;fillColor=none;gradientColor=none;" vertex="1" parent="1">
          <mxGeometry x="82.5" y="782.5" width="65" height="65" as="geometry" />
        </mxCell>
        <mxCell id="VTSIka6Tq6mD0PUPtEBo-39" value="Resolve" style="strokeWidth=1;shadow=0;dashed=0;align=center;html=1;shape=mxgraph.mockup.buttons.button;strokeColor=#82b366;mainText=;buttonStyle=round;fontSize=17;fontStyle=1;fillColor=#d5e8d4;whiteSpace=wrap;comic=0;" vertex="1" parent="1">
          <mxGeometry x="88.75" y="875" width="92.5" height="20" as="geometry" />
        </mxCell>
        <mxCell id="VTSIka6Tq6mD0PUPtEBo-40" value="Priority" style="strokeWidth=1;shadow=0;dashed=0;align=center;html=1;shape=mxgraph.mockup.buttons.button;strokeColor=#b85450;mainText=;buttonStyle=round;fontSize=17;fontStyle=1;fillColor=#f8cecc;whiteSpace=wrap;comic=0;" vertex="1" parent="1">
          <mxGeometry x="187.5" y="875" width="92.5" height="20" as="geometry" />
        </mxCell>
        <mxCell id="VTSIka6Tq6mD0PUPtEBo-42" value="New" style="strokeWidth=1;shadow=0;dashed=0;align=center;html=1;shape=mxgraph.mockup.forms.comboBox;strokeColor=#999999;fillColor=#ddeeff;align=left;fillColor2=#aaddff;mainText=;fontColor=#666666;fontSize=17;spacingLeft=3;comic=0;" vertex="1" parent="1">
          <mxGeometry x="360" y="960" width="150" height="30" as="geometry" />
        </mxCell>
        <mxCell id="VTSIka6Tq6mD0PUPtEBo-43" value="Unresolved" style="strokeWidth=1;shadow=0;dashed=0;align=center;html=1;shape=mxgraph.mockup.buttons.button;strokeColor=#6c8ebf;mainText=;buttonStyle=round;fontSize=17;fontStyle=1;fillColor=#dae8fc;whiteSpace=wrap;comic=0;" vertex="1" parent="1">
          <mxGeometry x="-10" y="875" width="92.5" height="20" as="geometry" />
        </mxCell>
        <mxCell id="VTSIka6Tq6mD0PUPtEBo-44" value="" style="endArrow=classic;html=1;rounded=0;fontSize=15;fontColor=#000033;exitX=1;exitY=1;exitDx=0;exitDy=0;entryX=0.003;entryY=0.473;entryDx=0;entryDy=0;entryPerimeter=0;" edge="1" parent="1" source="1kciWgEtemtRSGNLGntu-17" target="fAPRXDLk0ZkT3iY_FccS-1">
          <mxGeometry width="50" height="50" relative="1" as="geometry">
            <mxPoint x="910" y="560" as="sourcePoint" />
            <mxPoint x="960" y="510" as="targetPoint" />
          </mxGeometry>
        </mxCell>
        <mxCell id="VTSIka6Tq6mD0PUPtEBo-45" value="" style="endArrow=classic;html=1;rounded=0;fontSize=15;fontColor=#000033;exitX=1;exitY=0.5;exitDx=0;exitDy=0;exitPerimeter=0;entryX=0.016;entryY=0.512;entryDx=0;entryDy=0;entryPerimeter=0;" edge="1" parent="1" source="1kciWgEtemtRSGNLGntu-18" target="tHTh7QgnnBY2LIuFo3Qx-12">
          <mxGeometry width="50" height="50" relative="1" as="geometry">
            <mxPoint x="910" y="560" as="sourcePoint" />
            <mxPoint x="960" y="510" as="targetPoint" />
          </mxGeometry>
        </mxCell>
        <mxCell id="VTSIka6Tq6mD0PUPtEBo-47" value="" style="endArrow=classic;html=1;rounded=0;fontSize=15;fontColor=#000033;exitX=1;exitY=0.5;exitDx=0;exitDy=0;entryX=0.028;entryY=0.384;entryDx=0;entryDy=0;entryPerimeter=0;" edge="1" parent="1" source="oftK6sn-_rAUm3IxDmFb-50" target="Ie2oD-ZrXoTGrJoZ_4HK-14">
          <mxGeometry width="50" height="50" relative="1" as="geometry">
            <mxPoint x="970" y="350" as="sourcePoint" />
            <mxPoint x="1020" y="300" as="targetPoint" />
          </mxGeometry>
        </mxCell>
      </root>
    </mxGraphModel>
  </diagram>
</mxfile>
